<?xml version="1.0" encoding="us-ascii" standalone="no"?><svg xmlns="http://www.w3.org/2000/svg" xmlns:xlink="http://www.w3.org/1999/xlink" contentStyleType="text/css" height="1301px" preserveAspectRatio="none" style="width:891px;height:1301px;background:#FFFFFF;" version="1.1" viewBox="0 0 891 1301" width="891px" zoomAndPan="magnify"><defs/><g><ellipse cx="440.5625" cy="20" fill="#222222" rx="10" ry="10" style="stroke:#222222;stroke-width:1.0;"/><rect fill="#F1F1F1" height="33.9688" rx="12.5" ry="12.5" style="stroke:#181818;stroke-width:0.5;" width="123" x="379.0625" y="50"/><text fill="#000000" font-family="sans-serif" font-size="12" lengthAdjust="spacing" textLength="103" x="389.0625" y="71.1387">Transfer Request</text><polygon fill="#F1F1F1" points="395.5625,103.9688,485.5625,103.9688,497.5625,115.9688,485.5625,127.9688,395.5625,127.9688,383.5625,115.9688,395.5625,103.9688" style="stroke:#181818;stroke-width:0.5;"/><text fill="#000000" font-family="sans-serif" font-size="11" lengthAdjust="spacing" textLength="90" x="395.5625" y="119.7769">KYC Verification</text><text fill="#000000" font-family="sans-serif" font-size="11" lengthAdjust="spacing" textLength="21" x="362.5625" y="113.3745">yes</text><text fill="#000000" font-family="sans-serif" font-size="11" lengthAdjust="spacing" textLength="14" x="497.5625" y="113.3745">no</text><rect fill="#F1F1F1" height="33.9688" rx="12.5" ry="12.5" style="stroke:#181818;stroke-width:0.5;" width="82" x="332.5625" y="137.9688"/><text fill="#000000" font-family="sans-serif" font-size="12" lengthAdjust="spacing" textLength="62" x="342.5625" y="159.1074">Verify KYC</text><rect fill="#F1F1F1" height="33.9688" rx="12.5" ry="12.5" style="stroke:#181818;stroke-width:0.5;" width="111" x="452.0625" y="137.9688"/><text fill="#000000" font-family="sans-serif" font-size="12" lengthAdjust="spacing" textLength="91" x="462.0625" y="159.1074">Reject Transfer</text><ellipse cx="507.5625" cy="202.9375" fill="none" rx="11" ry="11" style="stroke:#222222;stroke-width:1.0;"/><ellipse cx="507.5625" cy="202.9375" fill="#222222" rx="6" ry="6" style="stroke:#222222;stroke-width:1.0;"/><polygon fill="#F1F1F1" points="385.5625,282.3398,495.5625,282.3398,507.5625,294.3398,495.5625,306.3398,385.5625,306.3398,373.5625,294.3398,385.5625,282.3398" style="stroke:#181818;stroke-width:0.5;"/><text fill="#000000" font-family="sans-serif" font-size="11" lengthAdjust="spacing" textLength="110" x="385.5625" y="298.1479">Is Sell Transaction?</text><text fill="#000000" font-family="sans-serif" font-size="11" lengthAdjust="spacing" textLength="21" x="352.5625" y="291.7456">yes</text><text fill="#000000" font-family="sans-serif" font-size="11" lengthAdjust="spacing" textLength="14" x="507.5625" y="291.7456">no</text><rect fill="#F1F1F1" height="33.9688" rx="12.5" ry="12.5" style="stroke:#181818;stroke-width:0.5;" width="142" x="114.625" y="316.3398"/><text fill="#000000" font-family="sans-serif" font-size="12" lengthAdjust="spacing" textLength="122" x="124.625" y="337.4785">Check Max Sell Limit</text><polygon fill="#F1F1F1" points="142.625,370.3086,228.625,370.3086,240.625,382.3086,228.625,394.3086,142.625,394.3086,130.625,382.3086,142.625,370.3086" style="stroke:#181818;stroke-width:0.5;"/><text fill="#000000" font-family="sans-serif" font-size="11" lengthAdjust="spacing" textLength="86" x="142.625" y="386.1167">Exceeds Limit?</text><text fill="#000000" font-family="sans-serif" font-size="11" lengthAdjust="spacing" textLength="21" x="109.625" y="379.7144">yes</text><text fill="#000000" font-family="sans-serif" font-size="11" lengthAdjust="spacing" textLength="14" x="240.625" y="379.7144">no</text><rect fill="#F1F1F1" height="33.9688" rx="12.5" ry="12.5" style="stroke:#181818;stroke-width:0.5;" width="111" x="11" y="404.3086"/><text fill="#000000" font-family="sans-serif" font-size="12" lengthAdjust="spacing" textLength="91" x="21" y="425.4473">Reject Transfer</text><ellipse cx="66.5" cy="484.2773" fill="none" rx="11" ry="11" style="stroke:#222222;stroke-width:1.0;"/><ellipse cx="66.5" cy="484.2773" fill="#222222" rx="6" ry="6" style="stroke:#222222;stroke-width:1.0;"/><rect fill="#F1F1F1" height="33.9688" rx="12.5" ry="12.5" style="stroke:#181818;stroke-width:0.5;" width="154" x="227.75" y="452.7109"/><text fill="#000000" font-family="sans-serif" font-size="12" lengthAdjust="spacing" textLength="134" x="237.75" y="473.8496">Check Cooldown Time</text><polygon fill="#F1F1F1" points="254.75,521.6797,354.75,521.6797,366.75,533.6797,354.75,545.6797,254.75,545.6797,242.75,533.6797,254.75,521.6797" style="stroke:#181818;stroke-width:0.5;"/><text fill="#000000" font-family="sans-serif" font-size="11" lengthAdjust="spacing" textLength="100" x="254.75" y="537.4878">Within Cooldown?</text><text fill="#000000" font-family="sans-serif" font-size="11" lengthAdjust="spacing" textLength="21" x="221.75" y="531.0854">yes</text><text fill="#000000" font-family="sans-serif" font-size="11" lengthAdjust="spacing" textLength="14" x="366.75" y="531.0854">no</text><rect fill="#F1F1F1" height="33.9688" rx="12.5" ry="12.5" style="stroke:#181818;stroke-width:0.5;" width="111" x="162" y="555.6797"/><text fill="#000000" font-family="sans-serif" font-size="12" lengthAdjust="spacing" textLength="91" x="172" y="576.8184">Reject Transfer</text><ellipse cx="217.5" cy="635.6484" fill="none" rx="11" ry="11" style="stroke:#222222;stroke-width:1.0;"/><ellipse cx="217.5" cy="635.6484" fill="#222222" rx="6" ry="6" style="stroke:#222222;stroke-width:1.0;"/><rect fill="#F1F1F1" height="33.9688" rx="12.5" ry="12.5" style="stroke:#181818;stroke-width:0.5;" width="198" x="293" y="555.6797"/><text fill="#000000" font-family="sans-serif" font-size="12" lengthAdjust="spacing" textLength="178" x="303" y="576.8184">Update Cooldown Timestamp</text><polygon fill="#F1F1F1" points="246.25,404.3086,363.25,404.3086,375.25,416.3086,363.25,428.3086,246.25,428.3086,234.25,416.3086,246.25,404.3086" style="stroke:#181818;stroke-width:0.5;"/><text fill="#000000" font-family="sans-serif" font-size="11" lengthAdjust="spacing" textLength="21" x="308.75" y="438.519">yes</text><text fill="#000000" font-family="sans-serif" font-size="11" lengthAdjust="spacing" textLength="117" x="246.25" y="420.1167">Cool Down Enabled?</text><polygon fill="#F1F1F1" points="304.75,666.6484,316.75,678.6484,304.75,690.6484,292.75,678.6484,304.75,666.6484" style="stroke:#181818;stroke-width:0.5;"/><rect fill="#F1F1F1" height="33.9688" rx="12.5" ry="12.5" style="stroke:#181818;stroke-width:0.5;" width="142" x="624.5" y="316.3398"/><text fill="#000000" font-family="sans-serif" font-size="12" lengthAdjust="spacing" textLength="122" x="634.5" y="337.4785">Check Max Buy Limit</text><polygon fill="#F1F1F1" points="652.5,370.3086,738.5,370.3086,750.5,382.3086,738.5,394.3086,652.5,394.3086,640.5,382.3086,652.5,370.3086" style="stroke:#181818;stroke-width:0.5;"/><text fill="#000000" font-family="sans-serif" font-size="11" lengthAdjust="spacing" textLength="86" x="652.5" y="386.1167">Exceeds Limit?</text><text fill="#000000" font-family="sans-serif" font-size="11" lengthAdjust="spacing" textLength="21" x="619.5" y="379.7144">yes</text><text fill="#000000" font-family="sans-serif" font-size="11" lengthAdjust="spacing" textLength="14" x="750.5" y="379.7144">no</text><rect fill="#F1F1F1" height="33.9688" rx="12.5" ry="12.5" style="stroke:#181818;stroke-width:0.5;" width="111" x="563" y="404.3086"/><text fill="#000000" font-family="sans-serif" font-size="12" lengthAdjust="spacing" textLength="91" x="573" y="425.4473">Reject Transfer</text><ellipse cx="618.5" cy="484.2773" fill="none" rx="11" ry="11" style="stroke:#222222;stroke-width:1.0;"/><ellipse cx="618.5" cy="484.2773" fill="#222222" rx="6" ry="6" style="stroke:#222222;stroke-width:1.0;"/><rect fill="#F1F1F1" height="33.9688" rx="12.5" ry="12.5" style="stroke:#181818;stroke-width:0.5;" width="157" x="694" y="404.3086"/><text fill="#000000" font-family="sans-serif" font-size="12" lengthAdjust="spacing" textLength="137" x="704" y="425.4473">Check Max Wallet Limit</text><rect fill="#F1F1F1" height="33.9688" rx="12.5" ry="12.5" style="stroke:#181818;stroke-width:0.5;" width="111" x="717" y="521.6797"/><text fill="#000000" font-family="sans-serif" font-size="12" lengthAdjust="spacing" textLength="91" x="727" y="542.8184">Reject Transfer</text><ellipse cx="772.5" cy="601.6484" fill="none" rx="11" ry="11" style="stroke:#222222;stroke-width:1.0;"/><ellipse cx="772.5" cy="601.6484" fill="#222222" rx="6" ry="6" style="stroke:#222222;stroke-width:1.0;"/><polygon fill="#F1F1F1" points="729.5,473.2773,815.5,473.2773,827.5,485.2773,815.5,497.2773,729.5,497.2773,717.5,485.2773,729.5,473.2773" style="stroke:#181818;stroke-width:0.5;"/><text fill="#000000" font-family="sans-serif" font-size="11" lengthAdjust="spacing" textLength="21" x="776.5" y="507.4878">yes</text><text fill="#000000" font-family="sans-serif" font-size="11" lengthAdjust="spacing" textLength="86" x="729.5" y="489.0854">Exceeds Limit?</text><polygon fill="#F1F1F1" points="440.5625,700.6484,452.5625,712.6484,440.5625,724.6484,428.5625,712.6484,440.5625,700.6484" style="stroke:#181818;stroke-width:0.5;"/><polygon fill="#F1F1F1" points="332.0625,744.6484,549.0625,744.6484,561.0625,756.6484,549.0625,768.6484,332.0625,768.6484,320.0625,756.6484,332.0625,744.6484" style="stroke:#181818;stroke-width:0.5;"/><text fill="#000000" font-family="sans-serif" font-size="11" lengthAdjust="spacing" textLength="217" x="332.0625" y="760.4565">Balance &lt;= Sticky Tokens Threshold?</text><text fill="#000000" font-family="sans-serif" font-size="11" lengthAdjust="spacing" textLength="21" x="299.0625" y="754.0542">yes</text><text fill="#000000" font-family="sans-serif" font-size="11" lengthAdjust="spacing" textLength="14" x="561.0625" y="754.0542">no</text><rect fill="#F1F1F1" height="33.9688" rx="12.5" ry="12.5" style="stroke:#181818;stroke-width:0.5;" width="155" x="232.5625" y="778.6484"/><text fill="#000000" font-family="sans-serif" font-size="12" lengthAdjust="spacing" textLength="135" x="242.5625" y="799.7871">Exclude Sticky Tokens</text><rect fill="#F1F1F1" height="33.9688" rx="12.5" ry="12.5" style="stroke:#181818;stroke-width:0.5;" width="181" x="480.5625" y="778.6484"/><text fill="#000000" font-family="sans-serif" font-size="12" lengthAdjust="spacing" textLength="161" x="490.5625" y="799.7871">Apply Normal Transfer Fee</text><polygon fill="#F1F1F1" points="440.5625,818.6172,452.5625,830.6172,440.5625,842.6172,428.5625,830.6172,440.5625,818.6172" style="stroke:#181818;stroke-width:0.5;"/><rect fill="#F1F1F1" height="33.9688" rx="12.5" ry="12.5" style="stroke:#181818;stroke-width:0.5;" width="150" x="365.5625" y="959.4219"/><text fill="#000000" font-family="sans-serif" font-size="12" lengthAdjust="spacing" textLength="130" x="375.5625" y="980.5605">Swap Tokens for BNB</text><rect fill="#F1F1F1" height="33.9688" rx="12.5" ry="12.5" style="stroke:#181818;stroke-width:0.5;" width="97" x="392.0625" y="1028.3906"/><text fill="#000000" font-family="sans-serif" font-size="12" lengthAdjust="spacing" textLength="77" x="402.0625" y="1049.5293">Add Liquidity</text><polygon fill="#F1F1F1" points="330.5625,911.0195,550.5625,911.0195,562.5625,923.0195,550.5625,935.0195,330.5625,935.0195,318.5625,923.0195,330.5625,911.0195" style="stroke:#181818;stroke-width:0.5;"/><text fill="#000000" font-family="sans-serif" font-size="11" lengthAdjust="spacing" textLength="21" x="444.5625" y="945.23">yes</text><text fill="#000000" font-family="sans-serif" font-size="11" lengthAdjust="spacing" textLength="220" x="330.5625" y="926.8276">Contract Balance &gt;= Swap Threshold?</text><polygon fill="#F1F1F1" points="440.5625,1082.3594,452.5625,1094.3594,440.5625,1106.3594,428.5625,1094.3594,440.5625,1082.3594" style="stroke:#181818;stroke-width:0.5;"/><polygon fill="#F1F1F1" points="397.0625,862.6172,484.0625,862.6172,496.0625,874.6172,484.0625,886.6172,397.0625,886.6172,385.0625,874.6172,397.0625,862.6172" style="stroke:#181818;stroke-width:0.5;"/><text fill="#000000" font-family="sans-serif" font-size="11" lengthAdjust="spacing" textLength="21" x="444.5625" y="896.8276">yes</text><text fill="#000000" font-family="sans-serif" font-size="11" lengthAdjust="spacing" textLength="87" x="397.0625" y="878.4253">Swap Enabled?</text><polygon fill="#F1F1F1" points="440.5625,1126.3594,452.5625,1138.3594,440.5625,1150.3594,428.5625,1138.3594,440.5625,1126.3594" style="stroke:#181818;stroke-width:0.5;"/><polygon fill="#F1F1F1" points="372.0625,233.9375,509.0625,233.9375,521.0625,245.9375,509.0625,257.9375,372.0625,257.9375,360.0625,245.9375,372.0625,233.9375" style="stroke:#181818;stroke-width:0.5;"/><text fill="#000000" font-family="sans-serif" font-size="11" lengthAdjust="spacing" textLength="21" x="444.5625" y="268.1479">yes</text><text fill="#000000" font-family="sans-serif" font-size="11" lengthAdjust="spacing" textLength="137" x="372.0625" y="249.7456">Not Excluded from Fee?</text><polygon fill="#F1F1F1" points="440.5625,1170.3594,452.5625,1182.3594,440.5625,1194.3594,428.5625,1182.3594,440.5625,1170.3594" style="stroke:#181818;stroke-width:0.5;"/><rect fill="#F1F1F1" height="33.9688" rx="12.5" ry="12.5" style="stroke:#181818;stroke-width:0.5;" width="132" x="374.5625" y="1214.3594"/><text fill="#000000" font-family="sans-serif" font-size="12" lengthAdjust="spacing" textLength="112" x="384.5625" y="1235.498">Complete Transfer</text><ellipse cx="440.5625" cy="1279.3281" fill="none" rx="11" ry="11" style="stroke:#222222;stroke-width:1.0;"/><ellipse cx="440.5625" cy="1279.3281" fill="#222222" rx="6" ry="6" style="stroke:#222222;stroke-width:1.0;"/><line style="stroke:#181818;stroke-width:1.0;" x1="440.5625" x2="440.5625" y1="30" y2="50"/><polygon fill="#181818" points="436.5625,40,440.5625,50,444.5625,40,440.5625,44" style="stroke:#181818;stroke-width:1.0;"/><line style="stroke:#181818;stroke-width:1.0;" x1="507.5625" x2="507.5625" y1="171.9375" y2="191.9375"/><polygon fill="#181818" points="503.5625,181.9375,507.5625,191.9375,511.5625,181.9375,507.5625,185.9375" style="stroke:#181818;stroke-width:1.0;"/><line style="stroke:#181818;stroke-width:1.0;" x1="383.5625" x2="373.5625" y1="115.9688" y2="115.9688"/><line style="stroke:#181818;stroke-width:1.0;" x1="373.5625" x2="373.5625" y1="115.9688" y2="137.9688"/><polygon fill="#181818" points="369.5625,127.9688,373.5625,137.9688,377.5625,127.9688,373.5625,131.9688" style="stroke:#181818;stroke-width:1.0;"/><line style="stroke:#181818;stroke-width:1.0;" x1="497.5625" x2="507.5625" y1="115.9688" y2="115.9688"/><line style="stroke:#181818;stroke-width:1.0;" x1="507.5625" x2="507.5625" y1="115.9688" y2="137.9688"/><polygon fill="#181818" points="503.5625,127.9688,507.5625,137.9688,511.5625,127.9688,507.5625,131.9688" style="stroke:#181818;stroke-width:1.0;"/><line style="stroke:#181818;stroke-width:1.0;" x1="373.5625" x2="373.5625" y1="171.9375" y2="218.9375"/><line style="stroke:#181818;stroke-width:1.0;" x1="373.5625" x2="440.5625" y1="218.9375" y2="218.9375"/><line style="stroke:#181818;stroke-width:1.0;" x1="440.5625" x2="440.5625" y1="218.9375" y2="233.9375"/><polygon fill="#181818" points="436.5625,223.9375,440.5625,233.9375,444.5625,223.9375,440.5625,227.9375" style="stroke:#181818;stroke-width:1.0;"/><line style="stroke:#181818;stroke-width:1.0;" x1="440.5625" x2="440.5625" y1="83.9688" y2="103.9688"/><polygon fill="#181818" points="436.5625,93.9688,440.5625,103.9688,444.5625,93.9688,440.5625,97.9688" style="stroke:#181818;stroke-width:1.0;"/><line style="stroke:#181818;stroke-width:1.0;" x1="66.5" x2="66.5" y1="438.2773" y2="473.2773"/><polygon fill="#181818" points="62.5,463.2773,66.5,473.2773,70.5,463.2773,66.5,467.2773" style="stroke:#181818;stroke-width:1.0;"/><line style="stroke:#181818;stroke-width:1.0;" x1="217.5" x2="217.5" y1="589.6484" y2="624.6484"/><polygon fill="#181818" points="213.5,614.6484,217.5,624.6484,221.5,614.6484,217.5,618.6484" style="stroke:#181818;stroke-width:1.0;"/><line style="stroke:#181818;stroke-width:1.0;" x1="242.75" x2="217.5" y1="533.6797" y2="533.6797"/><line style="stroke:#181818;stroke-width:1.0;" x1="217.5" x2="217.5" y1="533.6797" y2="555.6797"/><polygon fill="#181818" points="213.5,545.6797,217.5,555.6797,221.5,545.6797,217.5,549.6797" style="stroke:#181818;stroke-width:1.0;"/><line style="stroke:#181818;stroke-width:1.0;" x1="366.75" x2="392" y1="533.6797" y2="533.6797"/><line style="stroke:#181818;stroke-width:1.0;" x1="392" x2="392" y1="533.6797" y2="555.6797"/><polygon fill="#181818" points="388,545.6797,392,555.6797,396,545.6797,392,549.6797" style="stroke:#181818;stroke-width:1.0;"/><line style="stroke:#181818;stroke-width:1.0;" x1="392" x2="392" y1="589.6484" y2="651.6484"/><line style="stroke:#181818;stroke-width:1.0;" x1="392" x2="304.75" y1="651.6484" y2="651.6484"/><line style="stroke:#181818;stroke-width:1.0;" x1="304.75" x2="304.75" y1="651.6484" y2="666.6484"/><polygon fill="#181818" points="300.75,656.6484,304.75,666.6484,308.75,656.6484,304.75,660.6484" style="stroke:#181818;stroke-width:1.0;"/><line style="stroke:#181818;stroke-width:1.0;" x1="304.75" x2="304.75" y1="486.6797" y2="521.6797"/><polygon fill="#181818" points="300.75,511.6797,304.75,521.6797,308.75,511.6797,304.75,515.6797" style="stroke:#181818;stroke-width:1.0;"/><line style="stroke:#181818;stroke-width:1.0;" x1="304.75" x2="304.75" y1="428.3086" y2="452.7109"/><polygon fill="#181818" points="300.75,442.7109,304.75,452.7109,308.75,442.7109,304.75,446.7109" style="stroke:#181818;stroke-width:1.0;"/><line style="stroke:#181818;stroke-width:1.0;" x1="375.25" x2="511" y1="416.3086" y2="416.3086"/><polygon fill="#181818" points="507,542.6797,511,552.6797,515,542.6797,511,546.6797" style="stroke:#181818;stroke-width:1.0;"/><line style="stroke:#181818;stroke-width:1.0;" x1="511" x2="511" y1="416.3086" y2="678.6484"/><line style="stroke:#181818;stroke-width:1.0;" x1="511" x2="316.75" y1="678.6484" y2="678.6484"/><polygon fill="#181818" points="326.75,674.6484,316.75,678.6484,326.75,682.6484,322.75,678.6484" style="stroke:#181818;stroke-width:1.0;"/><line style="stroke:#181818;stroke-width:1.0;" x1="130.625" x2="66.5" y1="382.3086" y2="382.3086"/><line style="stroke:#181818;stroke-width:1.0;" x1="66.5" x2="66.5" y1="382.3086" y2="404.3086"/><polygon fill="#181818" points="62.5,394.3086,66.5,404.3086,70.5,394.3086,66.5,398.3086" style="stroke:#181818;stroke-width:1.0;"/><line style="stroke:#181818;stroke-width:1.0;" x1="240.625" x2="304.75" y1="382.3086" y2="382.3086"/><line style="stroke:#181818;stroke-width:1.0;" x1="304.75" x2="304.75" y1="382.3086" y2="404.3086"/><polygon fill="#181818" points="300.75,394.3086,304.75,404.3086,308.75,394.3086,304.75,398.3086" style="stroke:#181818;stroke-width:1.0;"/><line style="stroke:#181818;stroke-width:1.0;" x1="304.75" x2="304.75" y1="690.6484" y2="712.6484"/><line style="stroke:#181818;stroke-width:1.0;" x1="304.75" x2="428.5625" y1="712.6484" y2="712.6484"/><polygon fill="#181818" points="418.5625,708.6484,428.5625,712.6484,418.5625,716.6484,422.5625,712.6484" style="stroke:#181818;stroke-width:1.0;"/><line style="stroke:#181818;stroke-width:1.0;" x1="185.625" x2="185.625" y1="350.3086" y2="370.3086"/><polygon fill="#181818" points="181.625,360.3086,185.625,370.3086,189.625,360.3086,185.625,364.3086" style="stroke:#181818;stroke-width:1.0;"/><line style="stroke:#181818;stroke-width:1.0;" x1="618.5" x2="618.5" y1="438.2773" y2="473.2773"/><polygon fill="#181818" points="614.5,463.2773,618.5,473.2773,622.5,463.2773,618.5,467.2773" style="stroke:#181818;stroke-width:1.0;"/><line style="stroke:#181818;stroke-width:1.0;" x1="772.5" x2="772.5" y1="555.6484" y2="590.6484"/><polygon fill="#181818" points="768.5,580.6484,772.5,590.6484,776.5,580.6484,772.5,584.6484" style="stroke:#181818;stroke-width:1.0;"/><line style="stroke:#181818;stroke-width:1.0;" x1="772.5" x2="772.5" y1="497.2773" y2="521.6797"/><polygon fill="#181818" points="768.5,511.6797,772.5,521.6797,776.5,511.6797,772.5,515.6797" style="stroke:#181818;stroke-width:1.0;"/><line style="stroke:#181818;stroke-width:1.0;" x1="827.5" x2="839.5" y1="485.2773" y2="485.2773"/><polygon fill="#181818" points="835.5,595.1641,839.5,605.1641,843.5,595.1641,839.5,599.1641" style="stroke:#181818;stroke-width:1.0;"/><line style="stroke:#181818;stroke-width:1.0;" x1="839.5" x2="839.5" y1="485.2773" y2="712.6484"/><line style="stroke:#181818;stroke-width:1.0;" x1="839.5" x2="452.5625" y1="712.6484" y2="712.6484"/><polygon fill="#181818" points="462.5625,708.6484,452.5625,712.6484,462.5625,716.6484,458.5625,712.6484" style="stroke:#181818;stroke-width:1.0;"/><line style="stroke:#181818;stroke-width:1.0;" x1="772.5" x2="772.5" y1="438.2773" y2="473.2773"/><polygon fill="#181818" points="768.5,463.2773,772.5,473.2773,776.5,463.2773,772.5,467.2773" style="stroke:#181818;stroke-width:1.0;"/><line style="stroke:#181818;stroke-width:1.0;" x1="640.5" x2="618.5" y1="382.3086" y2="382.3086"/><line style="stroke:#181818;stroke-width:1.0;" x1="618.5" x2="618.5" y1="382.3086" y2="404.3086"/><polygon fill="#181818" points="614.5,394.3086,618.5,404.3086,622.5,394.3086,618.5,398.3086" style="stroke:#181818;stroke-width:1.0;"/><line style="stroke:#181818;stroke-width:1.0;" x1="750.5" x2="772.5" y1="382.3086" y2="382.3086"/><line style="stroke:#181818;stroke-width:1.0;" x1="772.5" x2="772.5" y1="382.3086" y2="404.3086"/><polygon fill="#181818" points="768.5,394.3086,772.5,404.3086,776.5,394.3086,772.5,398.3086" style="stroke:#181818;stroke-width:1.0;"/><line style="stroke:#181818;stroke-width:1.0;" x1="695.5" x2="695.5" y1="350.3086" y2="370.3086"/><polygon fill="#181818" points="691.5,360.3086,695.5,370.3086,699.5,360.3086,695.5,364.3086" style="stroke:#181818;stroke-width:1.0;"/><line style="stroke:#181818;stroke-width:1.0;" x1="373.5625" x2="185.625" y1="294.3398" y2="294.3398"/><line style="stroke:#181818;stroke-width:1.0;" x1="185.625" x2="185.625" y1="294.3398" y2="316.3398"/><polygon fill="#181818" points="181.625,306.3398,185.625,316.3398,189.625,306.3398,185.625,310.3398" style="stroke:#181818;stroke-width:1.0;"/><line style="stroke:#181818;stroke-width:1.0;" x1="507.5625" x2="695.5" y1="294.3398" y2="294.3398"/><line style="stroke:#181818;stroke-width:1.0;" x1="695.5" x2="695.5" y1="294.3398" y2="316.3398"/><polygon fill="#181818" points="691.5,306.3398,695.5,316.3398,699.5,306.3398,695.5,310.3398" style="stroke:#181818;stroke-width:1.0;"/><line style="stroke:#181818;stroke-width:1.0;" x1="320.0625" x2="310.0625" y1="756.6484" y2="756.6484"/><line style="stroke:#181818;stroke-width:1.0;" x1="310.0625" x2="310.0625" y1="756.6484" y2="778.6484"/><polygon fill="#181818" points="306.0625,768.6484,310.0625,778.6484,314.0625,768.6484,310.0625,772.6484" style="stroke:#181818;stroke-width:1.0;"/><line style="stroke:#181818;stroke-width:1.0;" x1="561.0625" x2="571.0625" y1="756.6484" y2="756.6484"/><line style="stroke:#181818;stroke-width:1.0;" x1="571.0625" x2="571.0625" y1="756.6484" y2="778.6484"/><polygon fill="#181818" points="567.0625,768.6484,571.0625,778.6484,575.0625,768.6484,571.0625,772.6484" style="stroke:#181818;stroke-width:1.0;"/><line style="stroke:#181818;stroke-width:1.0;" x1="310.0625" x2="310.0625" y1="812.6172" y2="830.6172"/><line style="stroke:#181818;stroke-width:1.0;" x1="310.0625" x2="428.5625" y1="830.6172" y2="830.6172"/><polygon fill="#181818" points="418.5625,826.6172,428.5625,830.6172,418.5625,834.6172,422.5625,830.6172" style="stroke:#181818;stroke-width:1.0;"/><line style="stroke:#181818;stroke-width:1.0;" x1="571.0625" x2="571.0625" y1="812.6172" y2="830.6172"/><line style="stroke:#181818;stroke-width:1.0;" x1="571.0625" x2="452.5625" y1="830.6172" y2="830.6172"/><polygon fill="#181818" points="462.5625,826.6172,452.5625,830.6172,462.5625,834.6172,458.5625,830.6172" style="stroke:#181818;stroke-width:1.0;"/><line style="stroke:#181818;stroke-width:1.0;" x1="440.5625" x2="440.5625" y1="724.6484" y2="744.6484"/><polygon fill="#181818" points="436.5625,734.6484,440.5625,744.6484,444.5625,734.6484,440.5625,738.6484" style="stroke:#181818;stroke-width:1.0;"/><line style="stroke:#181818;stroke-width:1.0;" x1="440.5625" x2="440.5625" y1="993.3906" y2="1028.3906"/><polygon fill="#181818" points="436.5625,1018.3906,440.5625,1028.3906,444.5625,1018.3906,440.5625,1022.3906" style="stroke:#181818;stroke-width:1.0;"/><line style="stroke:#181818;stroke-width:1.0;" x1="440.5625" x2="440.5625" y1="935.0195" y2="959.4219"/><polygon fill="#181818" points="436.5625,949.4219,440.5625,959.4219,444.5625,949.4219,440.5625,953.4219" style="stroke:#181818;stroke-width:1.0;"/><line style="stroke:#181818;stroke-width:1.0;" x1="562.5625" x2="574.5625" y1="923.0195" y2="923.0195"/><polygon fill="#181818" points="570.5625,1000.8906,574.5625,1010.8906,578.5625,1000.8906,574.5625,1004.8906" style="stroke:#181818;stroke-width:1.0;"/><line style="stroke:#181818;stroke-width:1.0;" x1="574.5625" x2="574.5625" y1="923.0195" y2="1094.3594"/><line style="stroke:#181818;stroke-width:1.0;" x1="574.5625" x2="452.5625" y1="1094.3594" y2="1094.3594"/><polygon fill="#181818" points="462.5625,1090.3594,452.5625,1094.3594,462.5625,1098.3594,458.5625,1094.3594" style="stroke:#181818;stroke-width:1.0;"/><line style="stroke:#181818;stroke-width:1.0;" x1="440.5625" x2="440.5625" y1="1062.3594" y2="1082.3594"/><polygon fill="#181818" points="436.5625,1072.3594,440.5625,1082.3594,444.5625,1072.3594,440.5625,1076.3594" style="stroke:#181818;stroke-width:1.0;"/><line style="stroke:#181818;stroke-width:1.0;" x1="440.5625" x2="440.5625" y1="886.6172" y2="911.0195"/><polygon fill="#181818" points="436.5625,901.0195,440.5625,911.0195,444.5625,901.0195,440.5625,905.0195" style="stroke:#181818;stroke-width:1.0;"/><line style="stroke:#181818;stroke-width:1.0;" x1="496.0625" x2="584.5625" y1="874.6172" y2="874.6172"/><polygon fill="#181818" points="580.5625,1000.8906,584.5625,1010.8906,588.5625,1000.8906,584.5625,1004.8906" style="stroke:#181818;stroke-width:1.0;"/><line style="stroke:#181818;stroke-width:1.0;" x1="584.5625" x2="584.5625" y1="874.6172" y2="1138.3594"/><line style="stroke:#181818;stroke-width:1.0;" x1="584.5625" x2="452.5625" y1="1138.3594" y2="1138.3594"/><polygon fill="#181818" points="462.5625,1134.3594,452.5625,1138.3594,462.5625,1142.3594,458.5625,1138.3594" style="stroke:#181818;stroke-width:1.0;"/><line style="stroke:#181818;stroke-width:1.0;" x1="440.5625" x2="440.5625" y1="1106.3594" y2="1126.3594"/><polygon fill="#181818" points="436.5625,1116.3594,440.5625,1126.3594,444.5625,1116.3594,440.5625,1120.3594" style="stroke:#181818;stroke-width:1.0;"/><line style="stroke:#181818;stroke-width:1.0;" x1="440.5625" x2="440.5625" y1="842.6172" y2="862.6172"/><polygon fill="#181818" points="436.5625,852.6172,440.5625,862.6172,444.5625,852.6172,440.5625,856.6172" style="stroke:#181818;stroke-width:1.0;"/><line style="stroke:#181818;stroke-width:1.0;" x1="440.5625" x2="440.5625" y1="257.9375" y2="282.3398"/><polygon fill="#181818" points="436.5625,272.3398,440.5625,282.3398,444.5625,272.3398,440.5625,276.3398" style="stroke:#181818;stroke-width:1.0;"/><line style="stroke:#181818;stroke-width:1.0;" x1="521.0625" x2="865" y1="245.9375" y2="245.9375"/><polygon fill="#181818" points="861,712.0508,865,722.0508,869,712.0508,865,716.0508" style="stroke:#181818;stroke-width:1.0;"/><line style="stroke:#181818;stroke-width:1.0;" x1="865" x2="865" y1="245.9375" y2="1182.3594"/><line style="stroke:#181818;stroke-width:1.0;" x1="865" x2="452.5625" y1="1182.3594" y2="1182.3594"/><polygon fill="#181818" points="462.5625,1178.3594,452.5625,1182.3594,462.5625,1186.3594,458.5625,1182.3594" style="stroke:#181818;stroke-width:1.0;"/><line style="stroke:#181818;stroke-width:1.0;" x1="440.5625" x2="440.5625" y1="1150.3594" y2="1170.3594"/><polygon fill="#181818" points="436.5625,1160.3594,440.5625,1170.3594,444.5625,1160.3594,440.5625,1164.3594" style="stroke:#181818;stroke-width:1.0;"/><line style="stroke:#181818;stroke-width:1.0;" x1="440.5625" x2="440.5625" y1="1194.3594" y2="1214.3594"/><polygon fill="#181818" points="436.5625,1204.3594,440.5625,1214.3594,444.5625,1204.3594,440.5625,1208.3594" style="stroke:#181818;stroke-width:1.0;"/><line style="stroke:#181818;stroke-width:1.0;" x1="440.5625" x2="440.5625" y1="1248.3281" y2="1268.3281"/><polygon fill="#181818" points="436.5625,1258.3281,440.5625,1268.3281,444.5625,1258.3281,440.5625,1262.3281" style="stroke:#181818;stroke-width:1.0;"/><!--SRC=[jLHDSvim4BthLsnkpY5_mBZksCITyIIrEq3hoL51Ir0j92A9iPcc_xqI688Takabd3JxyTxRfnLN33Ck4P9eiOaNORBURg0ogCdLAN6x2jUnZp9CkU5AzfaVqJPSnJ6KMgLeJ1zVHD5s1pStSo0avmmXKye-gYCXPizbIJKj85MISUlGu0y1MD9q_wHL9LceXDApMKSwdyC32g4EvE-mMogBOurmpvzo-zhnCfZg1OYnL5ioJJIL9aCD4JvNQ6n0U0QJkuSGVg7c6K-f5tODDaS9anhDjMEQDhaQN5b0K1Y4YLHD8iBVc5heK0CNCrQL1Ds46McmDyh2wfYAYY63JAi2lY5-lM3mXMi3iLFVWj7KwxWiSunXZkaUljDZMtpF2sw39kKn714YCstuRVUuOlyrglrXE5w76Yebu5OT9AmaVHJ8nf1xRRwQ-UA45nZqMG-qupRdigyOXtbVv9dGCR5Dyy-IKRSYPpBSxHVbAqnxFPVdxdIEEd1yMTMVR_Y0RqU5G3ka_4_IZomS63WoUhktBSsI2YfJXDaNY2rFzpKaQe_IG99hDBcpTsG_Jwj-tX6yTNLHbgA6ZT855RrA_pI2IndnWPRlBrwxdz9gzsAWKpntYdtN1qATXBQa7IbpFv3bPjdPD5qmvknzhhZxKzN1Y4SdYTDG5QMx91muxHt-1m00]--></g></svg>