<?xml version="1.0" encoding="us-ascii" standalone="no"?><svg xmlns="http://www.w3.org/2000/svg" xmlns:xlink="http://www.w3.org/1999/xlink" contentStyleType="text/css" height="1155px" preserveAspectRatio="none" style="width:1848px;height:1155px;background:#FFFFFF;" version="1.1" viewBox="0 0 1848 1155" width="1848px" zoomAndPan="magnify"><defs/><g><ellipse cx="1612" cy="16" fill="#222222" rx="10" ry="10" style="stroke:#222222;stroke-width:1.0;"/><rect fill="#F1F1F1" height="33.9688" rx="12.5" ry="12.5" style="stroke:#181818;stroke-width:0.5;" width="129" x="1547.5" y="67"/><text fill="#000000" font-family="sans-serif" font-size="12" lengthAdjust="spacing" textLength="109" x="1557.5" y="88.1387">Antibot Conditions</text><g id="elem_#5"><polygon fill="#F1F1F1" points="1612,142,1624,154,1612,166,1600,154,1612,142" style="stroke:#181818;stroke-width:0.5;"/></g><rect fill="#F1F1F1" height="33.9688" rx="12.5" ry="12.5" style="stroke:#181818;stroke-width:0.5;" width="130" x="1485" y="220"/><text fill="#000000" font-family="sans-serif" font-size="12" lengthAdjust="spacing" textLength="110" x="1495" y="241.1387">Other Conditions...</text><g id="elem_#10"><polygon fill="#F1F1F1" points="1550,295,1562,307,1550,319,1538,307,1550,295" style="stroke:#181818;stroke-width:0.5;"/></g><rect fill="#F1F1F1" height="33.9688" rx="12.5" ry="12.5" style="stroke:#181818;stroke-width:0.5;" width="118" x="1422" y="373"/><text fill="#000000" font-family="sans-serif" font-size="12" lengthAdjust="spacing" textLength="98" x="1432" y="394.1387">Buy Conditions...</text><g id="elem_#15"><polygon fill="#F1F1F1" points="1481,481,1493,493,1481,505,1469,493,1481,481" style="stroke:#181818;stroke-width:0.5;"/></g><rect fill="#F1F1F1" height="33.9688" rx="12.5" ry="12.5" style="stroke:#181818;stroke-width:0.5;" width="204" x="1318" y="559"/><text fill="#000000" font-family="sans-serif" font-size="12" lengthAdjust="spacing" textLength="184" x="1328" y="580.1387">Excluded from Sticky Tokens...</text><g id="elem_#20"><polygon fill="#F1F1F1" points="1420,634,1432,646,1420,658,1408,646,1420,634" style="stroke:#181818;stroke-width:0.5;"/></g><rect fill="#F1F1F1" height="33.9688" rx="12.5" ry="12.5" style="stroke:#181818;stroke-width:0.5;" width="121" x="1236.5" y="712"/><text fill="#000000" font-family="sans-serif" font-size="12" lengthAdjust="spacing" textLength="101" x="1246.5" y="733.1387">Swap and Liquify</text><ellipse cx="941" cy="812" fill="none" rx="11" ry="11" style="stroke:#222222;stroke-width:1.0;"/><ellipse cx="941" cy="812" fill="#222222" rx="6" ry="6" style="stroke:#222222;stroke-width:1.0;"/><rect fill="#F1F1F1" height="33.9688" rx="12.5" ry="12.5" style="stroke:#181818;stroke-width:0.5;" width="111" x="1177.5" y="1041"/><text fill="#000000" font-family="sans-serif" font-size="12" lengthAdjust="spacing" textLength="91" x="1187.5" y="1062.1387">Token Transfer</text><rect fill="#F1F1F1" height="33.9688" rx="12.5" ry="12.5" style="stroke:#181818;stroke-width:0.5;" width="118" x="1512" y="427"/><text fill="#000000" font-family="sans-serif" font-size="12" lengthAdjust="spacing" textLength="98" x="1522" y="448.1387">Sell Conditions...</text><g id="elem_#34"><polygon fill="#F1F1F1" points="1713,800,1725,812,1713,824,1701,812,1713,800" style="stroke:#181818;stroke-width:0.5;"/></g><rect fill="#F1F1F1" height="33.9688" rx="12.5" ry="12.5" style="stroke:#181818;stroke-width:0.5;" width="161" x="1632.5" y="878"/><text fill="#000000" font-family="sans-serif" font-size="12" lengthAdjust="spacing" textLength="141" x="1642.5" y="899.1387">Cool Down Conditions...</text><rect fill="#F1F1F1" height="33.9688" rx="12.5" ry="12.5" style="stroke:#181818;stroke-width:0.5;" width="188" x="1595" y="966"/><text fill="#000000" font-family="sans-serif" font-size="12" lengthAdjust="spacing" textLength="168" x="1605" y="987.1387">Update Last Sell Timestamp</text><g id="elem_#45"><polygon fill="#F1F1F1" points="1222,883,1234,895,1222,907,1210,895,1222,883" style="stroke:#181818;stroke-width:0.5;"/></g><rect fill="#F1F1F1" height="33.9688" rx="12.5" ry="12.5" style="stroke:#181818;stroke-width:0.5;" width="180" x="1300" y="966"/><text fill="#000000" font-family="sans-serif" font-size="12" lengthAdjust="spacing" textLength="160" x="1310" y="987.1387">Sticky Tokens Conditions...</text><rect fill="#F1F1F1" height="33.9688" rx="12.5" ry="12.5" style="stroke:#181818;stroke-width:0.5;" width="132" x="1148" y="966"/><text fill="#000000" font-family="sans-serif" font-size="12" lengthAdjust="spacing" textLength="112" x="1158" y="987.1387">Revert Transaction</text><g id="elem_#57"><polygon fill="#F1F1F1" points="216,883,228,895,216,907,204,895,216,883" style="stroke:#181818;stroke-width:0.5;"/></g><rect fill="#F1F1F1" height="33.9688" rx="12.5" ry="12.5" style="stroke:#181818;stroke-width:0.5;" width="155" x="51.5" y="966"/><text fill="#000000" font-family="sans-serif" font-size="12" lengthAdjust="spacing" textLength="135" x="61.5" y="987.1387">Reflection Conditions...</text><rect fill="#F1F1F1" height="33.9688" rx="12.5" ry="12.5" style="stroke:#181818;stroke-width:0.5;" width="82" x="7" y="1041"/><text fill="#000000" font-family="sans-serif" font-size="12" lengthAdjust="spacing" textLength="62" x="17" y="1062.1387">Reflect RFI</text><g id="elem_#65"><polygon fill="#F1F1F1" points="328,883,340,895,328,907,316,895,328,883" style="stroke:#181818;stroke-width:0.5;"/></g><rect fill="#F1F1F1" height="33.9688" rx="12.5" ry="12.5" style="stroke:#181818;stroke-width:0.5;" width="145" x="226.5" y="966"/><text fill="#000000" font-family="sans-serif" font-size="12" lengthAdjust="spacing" textLength="125" x="236.5" y="987.1387">Liquidity Conditions...</text><rect fill="#F1F1F1" height="33.9688" rx="12.5" ry="12.5" style="stroke:#181818;stroke-width:0.5;" width="102" x="265" y="1041"/><text fill="#000000" font-family="sans-serif" font-size="12" lengthAdjust="spacing" textLength="82" x="275" y="1062.1387">Take Liquidity</text><rect fill="#F1F1F1" height="33.9688" rx="12.5" ry="12.5" style="stroke:#181818;stroke-width:0.5;" width="99" x="324.5" y="1116"/><text fill="#000000" font-family="sans-serif" font-size="12" lengthAdjust="spacing" textLength="79" x="334.5" y="1137.1387">Emit Transfer</text><g id="elem_#75"><polygon fill="#F1F1F1" points="584,883,596,895,584,907,572,895,584,883" style="stroke:#181818;stroke-width:0.5;"/></g><rect fill="#F1F1F1" height="33.9688" rx="12.5" ry="12.5" style="stroke:#181818;stroke-width:0.5;" width="155" x="476.5" y="966"/><text fill="#000000" font-family="sans-serif" font-size="12" lengthAdjust="spacing" textLength="135" x="486.5" y="987.1387">Marketing Conditions...</text><rect fill="#F1F1F1" height="33.9688" rx="12.5" ry="12.5" style="stroke:#181818;stroke-width:0.5;" width="112" x="450" y="1041"/><text fill="#000000" font-family="sans-serif" font-size="12" lengthAdjust="spacing" textLength="92" x="460" y="1062.1387">Take Marketing</text><g id="elem_#83"><polygon fill="#F1F1F1" points="778,883,790,895,778,907,766,895,778,883" style="stroke:#181818;stroke-width:0.5;"/></g><rect fill="#F1F1F1" height="33.9688" rx="12.5" ry="12.5" style="stroke:#181818;stroke-width:0.5;" width="120" x="694" y="966"/><text fill="#000000" font-family="sans-serif" font-size="12" lengthAdjust="spacing" textLength="100" x="704" y="987.1387">Dev Conditions...</text><rect fill="#F1F1F1" height="33.9688" rx="12.5" ry="12.5" style="stroke:#181818;stroke-width:0.5;" width="77" x="647.5" y="1041"/><text fill="#000000" font-family="sans-serif" font-size="12" lengthAdjust="spacing" textLength="57" x="657.5" y="1062.1387">Take Dev</text><g id="elem_#91"><polygon fill="#F1F1F1" points="941,883,953,895,941,907,929,895,941,883" style="stroke:#181818;stroke-width:0.5;"/></g><rect fill="#F1F1F1" height="33.9688" rx="12.5" ry="12.5" style="stroke:#181818;stroke-width:0.5;" width="129" x="876.5" y="966"/><text fill="#000000" font-family="sans-serif" font-size="12" lengthAdjust="spacing" textLength="109" x="886.5" y="987.1387">Team Conditions...</text><rect fill="#F1F1F1" height="33.9688" rx="12.5" ry="12.5" style="stroke:#181818;stroke-width:0.5;" width="86" x="829" y="1041"/><text fill="#000000" font-family="sans-serif" font-size="12" lengthAdjust="spacing" textLength="66" x="839" y="1062.1387">Take Team</text><!--link start to Antibot Conditions--><g id="link_start_Antibot Conditions"><path d="M1612,26.18 C1612,36.66 1612,48.02 1612,60.79 " fill="none" id="start-to-Antibot Conditions" style="stroke:#181818;stroke-width:1.0;"/><polygon fill="#181818" points="1612,66.79,1616,57.79,1612,61.79,1608,57.79,1612,66.79" style="stroke:#181818;stroke-width:1.0;"/></g><!--link Antibot Conditions to #5--><g id="link_Antibot Conditions_#5"><path d="M1612,101.12 C1612,113.68 1612,124.81 1612,135.89 " fill="none" id="Antibot Conditions-to-#5" style="stroke:#181818;stroke-width:1.0;"/><polygon fill="#181818" points="1612,141.89,1616,132.89,1612,136.89,1608,132.89,1612,141.89" style="stroke:#181818;stroke-width:1.0;"/><text fill="#000000" font-family="sans-serif" font-size="11" lengthAdjust="spacing" textLength="90" x="1502.3125" y="132.3533">Conditions Met?</text></g><!--link #5 to Other Conditions...--><g id="link_#5_Other Conditions..."><path d="M1607.13,161.356 C1597.6,173.812 1579.8363,197.0171 1566.1063,214.9591 " fill="none" id="#5-to-Other Conditions..." style="stroke:#181818;stroke-width:1.0;"/><polygon fill="#181818" points="1562.46,219.724,1571.1061,215.0075,1565.4986,215.7532,1564.7529,210.1458,1562.46,219.724" style="stroke:#181818;stroke-width:1.0;"/><text fill="#000000" font-family="sans-serif" font-size="11" lengthAdjust="spacing" textLength="23" x="1587" y="197.2104">true</text></g><!--link Other Conditions... to #10--><g id="link_Other Conditions..._#10"><path d="M1550,254.115 C1550,266.683 1550,277.808 1550,288.885 " fill="none" id="Other Conditions...-to-#10" style="stroke:#181818;stroke-width:1.0;"/><polygon fill="#181818" points="1550,294.885,1554,285.885,1550,289.885,1546,285.885,1550,294.885" style="stroke:#181818;stroke-width:1.0;"/><text fill="#000000" font-family="sans-serif" font-size="11" lengthAdjust="spacing" textLength="91" x="1439.0938" y="285.3462">Buy Conditions?</text></g><!--link #10 to Buy Conditions...--><g id="link_#10_Buy Conditions..."><path d="M1544.52,313.592 C1538.59,319.709 1528.91,329.861 1521,339 C1511.4,350.095 1504.7524,358.3127 1496.9924,368.2517 " fill="none" id="#10-to-Buy Conditions..." style="stroke:#181818;stroke-width:1.0;"/><polygon fill="#181818" points="1493.3,372.981,1501.9915,368.3487,1496.377,369.0399,1495.6858,363.4255,1493.3,372.981" style="stroke:#181818;stroke-width:1.0;"/><text fill="#000000" font-family="sans-serif" font-size="11" lengthAdjust="spacing" textLength="23" x="1522" y="350.2104">true</text></g><!--link Buy Conditions... to #15--><g id="link_Buy Conditions..._#15"><path d="M1481,407.227 C1481,427.859 1481,456.943 1481,474.816 " fill="none" id="Buy Conditions...-to-#15" style="stroke:#181818;stroke-width:1.0;"/><polygon fill="#181818" points="1481,480.816,1485,471.816,1481,475.816,1477,471.816,1481,480.816" style="stroke:#181818;stroke-width:1.0;"/><text fill="#000000" font-family="sans-serif" font-size="11" lengthAdjust="spacing" textLength="171" x="1290.2281" y="474.9144">Excluded from Sticky Tokens?</text></g><!--link #15 to Excluded from Sticky Tokens...--><g id="link_#15_Excluded from Sticky Tokens..."><path d="M1476.21,500.356 C1466.83,512.812 1449.3791,535.9889 1435.8691,553.9309 " fill="none" id="#15-to-Excluded from Sticky Tokens..." style="stroke:#181818;stroke-width:1.0;"/><polygon fill="#181818" points="1432.26,558.724,1440.8691,553.9404,1435.2676,554.7297,1434.4783,549.1282,1432.26,558.724" style="stroke:#181818;stroke-width:1.0;"/><text fill="#000000" font-family="sans-serif" font-size="11" lengthAdjust="spacing" textLength="23" x="1456" y="536.2104">true</text></g><!--link Excluded from Sticky Tokens... to #20--><g id="link_Excluded from Sticky Tokens..._#20"><path d="M1420,593.115 C1420,605.683 1420,616.808 1420,627.885 " fill="none" id="Excluded from Sticky Tokens...-to-#20" style="stroke:#181818;stroke-width:1.0;"/><polygon fill="#181818" points="1420,633.885,1424,624.885,1420,628.885,1416,624.885,1420,633.885" style="stroke:#181818;stroke-width:1.0;"/><text fill="#000000" font-family="sans-serif" font-size="11" lengthAdjust="spacing" textLength="166" x="1233.7688" y="627.778">Swap and Liquify Conditions?</text></g><!--link #20 to Swap and Liquify--><g id="link_#20_Swap and Liquify"><path d="M1413.03,651.587 C1395.7,662.999 1355.0013,689.8055 1326.3913,708.6425 " fill="none" id="#20-to-Swap and Liquify" style="stroke:#181818;stroke-width:1.0;"/><polygon fill="#181818" points="1321.38,711.942,1331.0966,710.3337,1325.5561,709.1924,1326.6973,703.6519,1321.38,711.942" style="stroke:#181818;stroke-width:1.0;"/><text fill="#000000" font-family="sans-serif" font-size="11" lengthAdjust="spacing" textLength="23" x="1371" y="689.2104">true</text></g><!--link Swap and Liquify to end--><g id="link_Swap and Liquify_end"><path d="M1236.21,743.832 C1148.83,763.714 999.4635,797.6979 957.5385,807.2369 " fill="none" id="Swap and Liquify-to-end" style="stroke:#181818;stroke-width:1.0;"/><polygon fill="#181818" points="951.688,808.568,961.3511,810.4716,956.5634,807.4587,959.5763,802.671,951.688,808.568" style="stroke:#181818;stroke-width:1.0;"/></g><!--link #20 to Token Transfer--><g id="link_#20_Token Transfer"><path d="M1423.29,655.138 C1442.23,702.634 1535.07,943.842 1490,1000 C1465.26,1030.832 1362.5617,1045.4413 1294.7017,1052.0513 " fill="none" id="#20-to-Token Transfer" style="stroke:#181818;stroke-width:1.0;"/><polygon fill="#181818" points="1288.73,1052.633,1298.0754,1055.7416,1293.7064,1052.1483,1297.2998,1047.7793,1288.73,1052.633" style="stroke:#181818;stroke-width:1.0;"/><text fill="#000000" font-family="sans-serif" font-size="11" lengthAdjust="spacing" textLength="28" x="1489" y="855.2104">false</text></g><!--link Token Transfer to end--><g id="link_Token Transfer_end"><path d="M1177.49,1044.755 C1149.64,1034.027 1120.97,1017.458 1098,1000 C1014.65,936.654 926.6117,848.4449 931.0747,824.5649 " fill="none" id="Token Transfer-to-end" style="stroke:#181818;stroke-width:1.0;"/><polygon fill="#181818" points="932.177,818.667,926.5917,826.779,931.2584,823.5819,934.4555,828.2487,932.177,818.667" style="stroke:#181818;stroke-width:1.0;"/></g><!--link Token Transfer to end--><g id="link_Token Transfer_end"><path d="M1185.19,1040.889 C1163.21,1030.26 1138.37,1015.479 1118,1000 C1039.16,940.078 959.9509,857.9121 944.0469,828.4201 " fill="none" id="Token Transfer-to-end-1" style="stroke:#181818;stroke-width:1.0;"/><polygon fill="#181818" points="941.199,823.139,941.9501,832.9592,943.5722,827.5399,948.9915,829.162,941.199,823.139" style="stroke:#181818;stroke-width:1.0;"/></g><!--link Token Transfer to end--><g id="link_Token Transfer_end"><path d="M1202.39,1040.889 C1183.21,1030.26 1158.37,1015.479 1138,1000 C1056.91,938.366 976.448,852.0498 952.023,825.1938 " fill="none" id="Token Transfer-to-end-2" style="stroke:#181818;stroke-width:1.0;"/><polygon fill="#181818" points="947.986,820.755,951.0823,830.1045,951.3502,824.454,957.0007,824.7218,947.986,820.755" style="stroke:#181818;stroke-width:1.0;"/></g><!--link Token Transfer to end--><g id="link_Token Transfer_end"><path d="M1219.58,1040.889 C1203.21,1030.26 1178.37,1015.479 1158,1000 C1072.78,935.227 988.8494,841.5267 955.8394,820.3967 " fill="none" id="Token Transfer-to-end-3" style="stroke:#181818;stroke-width:1.0;"/><polygon fill="#181818" points="950.786,817.162,956.2096,825.383,954.9971,819.8576,960.5225,818.6452,950.786,817.162" style="stroke:#181818;stroke-width:1.0;"/></g><!--link Token Transfer to end--><g id="link_Token Transfer_end"><path d="M1236.78,1040.889 C1223.21,1030.26 1198.37,1015.479 1178,1000 C1089.58,932.802 1002.7905,832.9692 957.4105,817.0942 " fill="none" id="Token Transfer-to-end-4" style="stroke:#181818;stroke-width:1.0;"/><polygon fill="#181818" points="951.747,815.113,958.9214,821.8605,956.4666,816.764,961.563,814.3092,951.747,815.113" style="stroke:#181818;stroke-width:1.0;"/></g><!--link #15 to Token Transfer--><g id="link_#15_Token Transfer"><path d="M1488.43,497.771 C1506.83,507.691 1553,536.429 1553,575 C1553,575 1553,575 1553,984 C1553,1037.564 1386.4149,1051.5769 1294.7349,1055.3739 " fill="none" id="#15-to-Token Transfer" style="stroke:#181818;stroke-width:1.0;"/><polygon fill="#181818" points="1288.74,1055.6222,1297.8978,1059.2464,1293.7357,1055.4153,1297.5668,1051.2532,1288.74,1055.6222" style="stroke:#181818;stroke-width:1.0;"/><text fill="#000000" font-family="sans-serif" font-size="11" lengthAdjust="spacing" textLength="28" x="1554" y="777.2104">false</text></g><!--link #10 to Sell Conditions...--><g id="link_#10_Sell Conditions..."><path d="M1551.51,317.709 C1555.08,340.683 1563.1689,392.6411 1567.5689,420.9631 " fill="none" id="#10-to-Sell Conditions..." style="stroke:#181818;stroke-width:1.0;"/><polygon fill="#181818" points="1568.49,426.892,1571.061,417.3846,1567.7224,421.9513,1563.1558,418.6127,1568.49,426.892" style="stroke:#181818;stroke-width:1.0;"/><text fill="#000000" font-family="sans-serif" font-size="11" lengthAdjust="spacing" textLength="28" x="1557" y="350.2104">false</text></g><!--link Sell Conditions... to #34--><g id="link_Sell Conditions..._#34"><path d="M1572.06,461.054 C1575.24,501.533 1586.88,610.355 1624,692 C1646.21,740.848 1686.8694,784.6026 1702.9194,800.8956 " fill="none" id="Sell Conditions...-to-#34" style="stroke:#181818;stroke-width:1.0;"/><polygon fill="#181818" points="1707.13,805.17,1703.6636,795.9513,1703.6211,801.608,1697.9644,801.5655,1707.13,805.17" style="stroke:#181818;stroke-width:1.0;"/><text fill="#000000" font-family="sans-serif" font-size="11" lengthAdjust="spacing" textLength="130" x="1563.1775" y="800.9338">Cool Down Conditions?</text></g><!--link #34 to Cool Down Conditions...--><g id="link_#34_Cool Down Conditions..."><path d="M1713,824.263 C1713,838.173 1713,855.937 1713,871.803 " fill="none" id="#34-to-Cool Down Conditions..." style="stroke:#181818;stroke-width:1.0;"/><polygon fill="#181818" points="1713,877.803,1717,868.803,1713,872.803,1709,868.803,1713,877.803" style="stroke:#181818;stroke-width:1.0;"/><text fill="#000000" font-family="sans-serif" font-size="11" lengthAdjust="spacing" textLength="23" x="1714" y="855.2104">true</text></g><!--link Cool Down Conditions... to Update Last Sell Timestamp--><g id="link_Cool Down Conditions..._Update Last Sell Timestamp"><path d="M1708.49,912.176 C1704.19,927.551 1699.3948,944.7664 1695.1048,960.1184 " fill="none" id="Cool Down Conditions...-to-Update Last Sell Timestamp" style="stroke:#181818;stroke-width:1.0;"/><polygon fill="#181818" points="1693.49,965.897,1699.7646,958.3056,1694.8357,961.0815,1692.0598,956.1525,1693.49,965.897" style="stroke:#181818;stroke-width:1.0;"/></g><!--link Update Last Sell Timestamp to Token Transfer--><g id="link_Update Last Sell Timestamp_Token Transfer"><path d="M1644.23,1000.05 C1621.89,1007.48 1594.3,1015.794 1569,1021 C1471.46,1041.069 1361.5295,1049.9963 1294.4895,1053.9732 " fill="none" id="Update Last Sell Timestamp-to-Token Transfer" style="stroke:#181818;stroke-width:1.0;"/><polygon fill="#181818" points="1288.5,1054.3285,1297.7211,1057.7885,1293.4912,1054.0324,1297.2473,1049.8026,1288.5,1054.3285" style="stroke:#181818;stroke-width:1.0;"/></g><!--link #34 to Token Transfer--><g id="link_#34_Token Transfer"><path d="M1721.32,815.907 C1740.23,823.02 1786.14,843.301 1804,878 C1817.77,904.757 1812.38,981.063 1793,1000 C1757.36,1034.836 1428.9061,1050.1306 1294.5161,1054.9949 " fill="none" id="#34-to-Token Transfer" style="stroke:#181818;stroke-width:1.0;"/><polygon fill="#181818" points="1288.52,1055.2119,1297.6588,1058.8837,1293.5167,1055.031,1297.3694,1050.889,1288.52,1055.2119" style="stroke:#181818;stroke-width:1.0;"/><text fill="#000000" font-family="sans-serif" font-size="11" lengthAdjust="spacing" textLength="28" x="1812" y="943.2104">false</text></g><!--link end to #45--><g id="link_end_#45"><path d="M951.964,813.031 C995.339,813.348 1154.54,816.403 1195,844 C1209.18,853.672 1214.9292,867.5209 1218.1992,879.0989 " fill="none" id="end-to-#45" style="stroke:#181818;stroke-width:1.0;"/><polygon fill="#181818" points="1219.83,884.873,1221.2332,875.1246,1218.471,880.0612,1213.5344,877.299,1219.83,884.873" style="stroke:#181818;stroke-width:1.0;"/><text fill="#000000" font-family="sans-serif" font-size="11" lengthAdjust="spacing" textLength="148" x="1054.2157" y="879.4471">Sticky Tokens Conditions?</text></g><!--link #45 to Sticky Tokens Conditions...--><g id="link_#45_Sticky Tokens Conditions..."><path d="M1229.66,899.919 C1252.06,911.387 1313.0789,942.6243 1353.0689,963.0923 " fill="none" id="#45-to-Sticky Tokens Conditions..." style="stroke:#181818;stroke-width:1.0;"/><polygon fill="#181818" points="1358.41,965.826,1352.2209,958.1647,1353.9591,963.5479,1348.5759,965.2862,1358.41,965.826" style="stroke:#181818;stroke-width:1.0;"/><text fill="#000000" font-family="sans-serif" font-size="11" lengthAdjust="spacing" textLength="23" x="1318" y="943.2104">true</text></g><!--link Sticky Tokens Conditions... to Token Transfer--><g id="link_Sticky Tokens Conditions..._Token Transfer"><path d="M1355.55,1000.02 C1329.46,1012.15 1299.2209,1026.2108 1273.0809,1038.3618 " fill="none" id="Sticky Tokens Conditions...-to-Token Transfer" style="stroke:#181818;stroke-width:1.0;"/><polygon fill="#181818" points="1267.64,1040.891,1277.4875,1040.7245,1272.1741,1038.7834,1274.1152,1033.47,1267.64,1040.891" style="stroke:#181818;stroke-width:1.0;"/></g><!--link #45 to Revert Transaction--><g id="link_#45_Revert Transaction"><path d="M1221.05,906.203 C1219.68,920.975 1217.6764,942.4859 1216.0464,959.9859 " fill="none" id="#45-to-Revert Transaction" style="stroke:#181818;stroke-width:1.0;"/><polygon fill="#181818" points="1215.49,965.96,1220.3074,957.3698,1215.9537,960.9815,1212.3419,956.6278,1215.49,965.96" style="stroke:#181818;stroke-width:1.0;"/><text fill="#000000" font-family="sans-serif" font-size="11" lengthAdjust="spacing" textLength="28" x="1220" y="943.2104">false</text></g><!--link Revert Transaction to end--><g id="link_Revert Transaction_end"><path d="M1203.61,965.623 C1190.33,936.034 1166.79,873.963 1123,844 C1094.3,824.361 993.4501,816.6646 958.0231,814.2466 " fill="none" id="Revert Transaction-to-end" style="stroke:#181818;stroke-width:1.0;"/><polygon fill="#181818" points="952.037,813.838,960.7437,818.4416,957.0254,814.1785,961.2885,810.4601,952.037,813.838" style="stroke:#181818;stroke-width:1.0;"/></g><!--link Revert Transaction to end--><g id="link_Revert Transaction_end"><path d="M1215.3,965.623 C1210.33,936.034 1186.79,873.963 1143,844 C1112.07,822.836 996.3912,815.3307 958.0962,813.6397 " fill="none" id="Revert Transaction-to-end-1" style="stroke:#181818;stroke-width:1.0;"/><polygon fill="#181818" points="952.102,813.375,960.9168,817.7681,957.0971,813.5956,961.2697,809.7759,952.102,813.375" style="stroke:#181818;stroke-width:1.0;"/></g><!--link #5 to Revert Transaction--><g id="link_#5_Revert Transaction"><path d="M1616.73,161.337 C1626.07,174.507 1646,206.108 1646,236 C1646,236 1646,236 1646,533 C1646,681.443 1671.2,750.34 1569,858 C1528.77,900.376 1377.0654,942.6791 1285.9354,965.1581 " fill="none" id="#5-to-Revert Transaction" style="stroke:#181818;stroke-width:1.0;"/><polygon fill="#181818" points="1280.11,966.595,1289.8061,968.3232,1284.9645,965.3975,1287.8901,960.556,1280.11,966.595" style="stroke:#181818;stroke-width:1.0;"/><text fill="#000000" font-family="sans-serif" font-size="11" lengthAdjust="spacing" textLength="28" x="1648" y="580.2104">false</text></g><!--link end to #57--><g id="link_end_#57"><path d="M929.65,813.167 C858.582,814.28 474.155,821.281 359,844 C305.33,854.589 249.9324,878.4944 228.9974,888.0184 " fill="none" id="end-to-#57" style="stroke:#181818;stroke-width:1.0;"/><polygon fill="#181818" points="223.536,890.503,233.3845,890.4171,228.0872,888.4325,230.0717,883.1352,223.536,890.503" style="stroke:#181818;stroke-width:1.0;"/><text fill="#000000" font-family="sans-serif" font-size="11" lengthAdjust="spacing" textLength="126" x="70.4977" y="883.7923">Reflection Conditions?</text></g><!--link #57 to Reflection Conditions...--><g id="link_#57_Reflection Conditions..."><path d="M210.292,901.643 C197.287,914.497 169.328,942.1348 149.58,961.6568 " fill="none" id="#57-to-Reflection Conditions..." style="stroke:#181818;stroke-width:1.0;"/><polygon fill="#181818" points="145.313,965.875,154.5256,962.3924,148.8688,962.3599,148.9014,956.7031,145.313,965.875" style="stroke:#181818;stroke-width:1.0;"/><text fill="#000000" font-family="sans-serif" font-size="11" lengthAdjust="spacing" textLength="23" x="179" y="943.2104">true</text></g><!--link Reflection Conditions... to Reflect RFI--><g id="link_Reflection Conditions..._Reflect RFI"><path d="M111.023,1000.201 C97.6004,1012.298 83.7944,1024.7413 70.3834,1036.8273 " fill="none" id="Reflection Conditions...-to-Reflect RFI" style="stroke:#181818;stroke-width:1.0;"/><polygon fill="#181818" points="65.9263,1040.844,75.2898,1037.7903,69.6406,1037.4967,69.9341,1031.8475,65.9263,1040.844" style="stroke:#181818;stroke-width:1.0;"/></g><!--link Reflect RFI to end--><g id="link_Reflect RFI_end"><path d="M41.5944,1040.985 C35.0248,1021.795 27.5124,989.317 41,966 C105.1145,855.161 175.948,866.513 302,844 C429.652,821.202 850.0516,814.2875 924.0186,813.2335 " fill="none" id="Reflect RFI-to-end" style="stroke:#181818;stroke-width:1.0;"/><polygon fill="#181818" points="930.018,813.148,920.9619,809.2766,925.0185,813.2192,921.0759,817.2758,930.018,813.148" style="stroke:#181818;stroke-width:1.0;"/></g><!--link end to #65--><g id="link_end_#65"><path d="M929.65,813.202 C855.29,814.585 439.121,823.215 387,844 C363.304,853.449 346.1036,871.7894 336.8396,883.0024 " fill="none" id="end-to-#65" style="stroke:#181818;stroke-width:1.0;"/><polygon fill="#181818" points="333.018,887.628,341.834,883.2374,336.2026,883.7734,335.6666,878.142,333.018,887.628" style="stroke:#181818;stroke-width:1.0;"/><text fill="#000000" font-family="sans-serif" font-size="11" lengthAdjust="spacing" textLength="116" x="348.3786" y="882.6771">Liquidity Conditions?</text></g><!--link #65 to Liquidity Conditions...--><g id="link_#65_Liquidity Conditions..."><path d="M325.219,904.246 C320.456,918.372 312.5702,941.7575 306.3932,960.0755 " fill="none" id="#65-to-Liquidity Conditions..." style="stroke:#181818;stroke-width:1.0;"/><polygon fill="#181818" points="304.476,965.761,311.1421,958.5109,306.0737,961.0231,303.5615,955.9547,304.476,965.761" style="stroke:#181818;stroke-width:1.0;"/><text fill="#000000" font-family="sans-serif" font-size="11" lengthAdjust="spacing" textLength="23" x="317" y="943.2104">true</text></g><!--link Liquidity Conditions... to Take Liquidity--><g id="link_Liquidity Conditions..._Take Liquidity"><path d="M302.773,1000.201 C305.59,1012.298 308.0619,1022.9144 310.8769,1035.0004 " fill="none" id="Liquidity Conditions...-to-Take Liquidity" style="stroke:#181818;stroke-width:1.0;"/><polygon fill="#181818" points="312.238,1040.844,314.0921,1031.1712,311.1038,1035.9743,306.3007,1032.986,312.238,1040.844" style="stroke:#181818;stroke-width:1.0;"/></g><!--link Take Liquidity to Emit Transfer--><g id="link_Take Liquidity_Emit Transfer"><path d="M328.872,1075.2011 C338.484,1087.2984 347.8285,1099.0601 357.4315,1111.1465 " fill="none" id="Take Liquidity-to-Emit Transfer" style="stroke:#181818;stroke-width:1.0;"/><polygon fill="#181818" points="361.164,1115.8442,358.6971,1106.3093,358.0536,1111.9294,352.4335,1111.2859,361.164,1115.8442" style="stroke:#181818;stroke-width:1.0;"/></g><!--link Emit Transfer to end--><g id="link_Emit Transfer_end"><path d="M384.47,1115.9083 C392.776,1101.5771 403,1079.7283 403,1059 C403,894 403,894 403,894 C403,838.744 846.5107,817.0865 923.7687,813.7285 " fill="none" id="Emit Transfer-to-end" style="stroke:#181818;stroke-width:1.0;"/><polygon fill="#181818" points="929.763,813.468,920.5978,809.8626,924.7677,813.6851,920.9452,817.855,929.763,813.468" style="stroke:#181818;stroke-width:1.0;"/></g><!--link end to #75--><g id="link_end_#75"><path d="M929.929,813.344 C882.922,814.929 699.855,822.4 647,844 C622.182,854.142 603.2037,872.7688 593.2397,883.6618 " fill="none" id="end-to-#75" style="stroke:#181818;stroke-width:1.0;"/><polygon fill="#181818" points="589.19,888.089,598.216,884.1479,592.5647,884.3996,592.313,878.7484,589.19,888.089" style="stroke:#181818;stroke-width:1.0;"/><text fill="#000000" font-family="sans-serif" font-size="11" lengthAdjust="spacing" textLength="124" x="603.8878" y="883.5632">Marketing Conditions?</text></g><!--link #75 to Marketing Conditions...--><g id="link_#75_Marketing Conditions..."><path d="M581.123,904.246 C576.196,918.372 568.0312,941.7778 561.6412,960.0958 " fill="none" id="#75-to-Marketing Conditions..." style="stroke:#181818;stroke-width:1.0;"/><polygon fill="#181818" points="559.665,965.761,566.4062,958.5807,561.3119,961.04,558.8525,955.9457,559.665,965.761" style="stroke:#181818;stroke-width:1.0;"/><text fill="#000000" font-family="sans-serif" font-size="11" lengthAdjust="spacing" textLength="23" x="572" y="943.2104">true</text></g><!--link Marketing Conditions... to Take Marketing--><g id="link_Marketing Conditions..._Take Marketing"><path d="M543.347,1000.201 C535.393,1012.298 527.8664,1023.7447 519.9194,1035.8307 " fill="none" id="Marketing Conditions...-to-Take Marketing" style="stroke:#181818;stroke-width:1.0;"/><polygon fill="#181818" points="516.623,1040.844,524.9099,1035.5216,519.37,1036.6662,518.2255,1031.1264,516.623,1040.844" style="stroke:#181818;stroke-width:1.0;"/></g><!--link Take Marketing to end--><g id="link_Take Marketing_end"><path d="M490.367,1040.889 C474.708,1022.701 454.465,992.222 466,966 C501.16,886.072 536.93,870.907 620,844 C679.656,824.677 874.685,815.6792 924.008,813.6702 " fill="none" id="Take Marketing-to-end" style="stroke:#181818;stroke-width:1.0;"/><polygon fill="#181818" points="930.003,813.426,920.8477,809.7956,925.0071,813.6295,921.1732,817.789,930.003,813.426" style="stroke:#181818;stroke-width:1.0;"/></g><!--link end to #83--><g id="link_end_#83"><path d="M930.119,814.176 C909.264,816.812 862.738,824.559 829,844 C809.017,855.515 794.8158,871.9429 786.5388,882.6629 " fill="none" id="end-to-#83" style="stroke:#181818;stroke-width:1.0;"/><polygon fill="#181818" points="782.872,887.412,791.5384,882.7329,785.9277,883.4544,785.2062,877.8437,782.872,887.412" style="stroke:#181818;stroke-width:1.0;"/><text fill="#000000" font-family="sans-serif" font-size="11" lengthAdjust="spacing" textLength="93" x="797.9625" y="881.7492">Dev Conditions?</text></g><!--link #83 to Dev Conditions...--><g id="link_#83_Dev Conditions..."><path d="M775.522,904.88 C771.522,919.213 765.1947,941.8858 760.1577,959.9358 " fill="none" id="#83-to-Dev Conditions..." style="stroke:#181818;stroke-width:1.0;"/><polygon fill="#181818" points="758.545,965.715,764.8169,958.1214,759.8889,960.899,757.1113,955.9711,758.545,965.715" style="stroke:#181818;stroke-width:1.0;"/><text fill="#000000" font-family="sans-serif" font-size="11" lengthAdjust="spacing" textLength="23" x="769" y="943.2104">true</text></g><!--link Dev Conditions... to Take Dev--><g id="link_Dev Conditions..._Take Dev"><path d="M738.909,1000.201 C727.64,1012.298 716.3978,1024.3678 705.1388,1036.4538 " fill="none" id="Dev Conditions...-to-Take Dev" style="stroke:#181818;stroke-width:1.0;"/><polygon fill="#181818" points="701.049,1040.844,710.1105,1036.9852,704.4571,1037.1855,704.2569,1031.5322,701.049,1040.844" style="stroke:#181818;stroke-width:1.0;"/></g><!--link Take Dev to end--><g id="link_Take Dev_end"><path d="M682.29,1040.997 C678.725,1022.38 675.075,991.003 684,966 C700.989,918.407 718.721,912.116 756,878 C775.825,859.857 781.369,854.748 806,844 C849.64,824.957 900.5713,817.5125 924.1103,814.8055 " fill="none" id="Take Dev-to-end" style="stroke:#181818;stroke-width:1.0;"/><polygon fill="#181818" points="930.071,814.12,920.6729,811.1744,925.1037,814.6912,921.5869,819.122,930.071,814.12" style="stroke:#181818;stroke-width:1.0;"/></g><!--link end to #91--><g id="link_end_#91"><path d="M941,823.259 C941,838.499 941,861.013 941,876.786 " fill="none" id="end-to-#91" style="stroke:#181818;stroke-width:1.0;"/><polygon fill="#181818" points="941,882.786,945,873.786,941,877.786,937,873.786,941,882.786" style="stroke:#181818;stroke-width:1.0;"/><text fill="#000000" font-family="sans-serif" font-size="11" lengthAdjust="spacing" textLength="102" x="961.0813" y="873.9831">Team Conditions?</text></g><!--link #91 to Team Conditions...--><g id="link_#91_Team Conditions..."><path d="M941,907.243 C941,922.177 941,942.657 941,959.761 " fill="none" id="#91-to-Team Conditions..." style="stroke:#181818;stroke-width:1.0;"/><polygon fill="#181818" points="941,965.761,945,956.761,941,960.761,937,956.761,941,965.761" style="stroke:#181818;stroke-width:1.0;"/><text fill="#000000" font-family="sans-serif" font-size="11" lengthAdjust="spacing" textLength="23" x="942" y="943.2104">true</text></g><!--link Team Conditions... to Take Team--><g id="link_Team Conditions..._Take Team"><path d="M925.687,1000.201 C914.252,1012.298 902.8165,1024.3976 891.3925,1036.4836 " fill="none" id="Team Conditions...-to-Take Team" style="stroke:#181818;stroke-width:1.0;"/><polygon fill="#181818" points="887.271,1040.844,896.3602,1037.0511,890.7056,1037.2104,890.5464,1031.5557,887.271,1040.844" style="stroke:#181818;stroke-width:1.0;"/></g><!--link Take Team to end--><g id="link_Take Team_end"><path d="M868.163,1040.991 C864.4,1022.635 860.026,991.757 866,966 C879.767,906.636 916.5679,848.7014 931.7359,826.3974 " fill="none" id="Take Team-to-end" style="stroke:#181818;stroke-width:1.0;"/><polygon fill="#181818" points="935.11,821.436,926.7413,826.6288,932.2983,825.5705,933.3565,831.1275,935.11,821.436" style="stroke:#181818;stroke-width:1.0;"/></g><!--SRC=[fPDDJiCm48NtESKegxPIUmGGj20XjK9gmmgnCCqOh2HsSPoMtfxykAcTs1Y9LHJxVM_UJ2QJsHJcynk8xxXYxqB1Kl2KAIPu6KSHen1V3s23wZO6zOayWePwLRB2DuYVwoDfa8l58guL3NrVdOsBAstnjaZJ7V_mlS-h55EWKXImKsoVdI4H6TfcbjqlJE_TkUzEv024fx1cNnMZlgW3_o4LcoAOpARw7VCIBPwI-gGsQBD08WalAKelNaUXqS0eR6EQN2nw0nFVOPxxnhuK8eULE77lH8nvkCJ6eDlrUZcaH26iIQcWBPom0aj5YeCb-qDB_vv5-zJhQIr7U55zyhvRRnFN9CvliSKZIjKnPDzuZh0kjgR3x8NKNDFi5ccEhS3PgT6dKwcRR5lK0jW-FdcAjVz6JPv3jLn2irH2CeHUr1y_54nPCtPas12PeMBy8vJ19Hnbw4MUQYiyXkhOab65-jhZdI0fGkO3pSYzkH_P_m00]--></g></svg>