<?xml version="1.0" encoding="us-ascii" standalone="no"?><svg xmlns="http://www.w3.org/2000/svg" xmlns:xlink="http://www.w3.org/1999/xlink" contentStyleType="text/css" height="1249px" preserveAspectRatio="none" style="width:591px;height:1249px;background:#FFFFFF;" version="1.1" viewBox="0 0 591 1249" width="591px" zoomAndPan="magnify"><defs/><g><text fill="#000000" font-family="sans-serif" font-size="14" font-weight="bold" lengthAdjust="spacing" textLength="290" x="149" y="32.9951">swapAndLiquify Function Flowchart</text><ellipse cx="357.25" cy="57.2969" fill="#222222" rx="10" ry="10" style="stroke:#222222;stroke-width:1.0;"/><rect fill="#F1F1F1" height="33.9688" rx="12.5" ry="12.5" style="stroke:#181818;stroke-width:0.5;" width="121" x="296.75" y="87.2969"/><text fill="#000000" font-family="sans-serif" font-size="12" lengthAdjust="spacing" textLength="101" x="306.75" y="108.4355">Input Parameters</text><rect fill="#F1F1F1" height="33.9688" rx="12.5" ry="12.5" style="stroke:#181818;stroke-width:0.5;" width="154" x="280.25" y="141.2656"/><text fill="#000000" font-family="sans-serif" font-size="12" lengthAdjust="spacing" textLength="134" x="290.25" y="162.4043">Calculate denominator</text><rect fill="#F1F1F1" height="33.9688" rx="12.5" ry="12.5" style="stroke:#181818;stroke-width:0.5;" width="233" x="240.75" y="195.2344"/><text fill="#000000" font-family="sans-serif" font-size="12" lengthAdjust="spacing" textLength="213" x="250.75" y="216.373">Calculate tokensToAddLiquidityWith</text><rect fill="#F1F1F1" height="33.9688" rx="12.5" ry="12.5" style="stroke:#181818;stroke-width:0.5;" width="123" x="295.75" y="249.2031"/><text fill="#000000" font-family="sans-serif" font-size="12" lengthAdjust="spacing" textLength="103" x="305.75" y="270.3418">Calculate toSwap</text><polygon fill="#F1F1F1" points="324.25,303.1719,390.25,303.1719,402.25,315.1719,390.25,327.1719,324.25,327.1719,312.25,315.1719,324.25,303.1719" style="stroke:#181818;stroke-width:0.5;"/><text fill="#000000" font-family="sans-serif" font-size="11" lengthAdjust="spacing" textLength="66" x="324.25" y="318.98">toSwap &gt; 0</text><text fill="#000000" font-family="sans-serif" font-size="11" lengthAdjust="spacing" textLength="23" x="289.25" y="312.5776">true</text><text fill="#000000" font-family="sans-serif" font-size="11" lengthAdjust="spacing" textLength="28" x="402.25" y="312.5776">false</text><rect fill="#F1F1F1" height="33.9688" rx="12.5" ry="12.5" style="stroke:#181818;stroke-width:0.5;" width="221" x="92.5" y="337.1719"/><text fill="#000000" font-family="sans-serif" font-size="12" lengthAdjust="spacing" textLength="201" x="102.5" y="358.3105">Initial Balance = Address Balance</text><rect fill="#F1F1F1" height="33.9688" rx="12.5" ry="12.5" style="stroke:#181818;stroke-width:0.5;" width="150" x="128" y="391.1406"/><text fill="#000000" font-family="sans-serif" font-size="12" lengthAdjust="spacing" textLength="130" x="138" y="412.2793">Swap Tokens for BNB</text><rect fill="#F1F1F1" height="33.9688" rx="12.5" ry="12.5" style="stroke:#181818;stroke-width:0.5;" width="160" x="123" y="445.1094"/><text fill="#000000" font-family="sans-serif" font-size="12" lengthAdjust="spacing" textLength="140" x="133" y="466.248">Calculate Delta Balance</text><rect fill="#F1F1F1" height="33.9688" rx="12.5" ry="12.5" style="stroke:#181818;stroke-width:0.5;" width="152" x="127" y="499.0781"/><text fill="#000000" font-family="sans-serif" font-size="12" lengthAdjust="spacing" textLength="132" x="137" y="520.2168">Calculate Unit Balance</text><polygon fill="#F1F1F1" points="126.5,553.0469,279.5,553.0469,291.5,565.0469,279.5,577.0469,126.5,577.0469,114.5,565.0469,126.5,553.0469" style="stroke:#181818;stroke-width:0.5;"/><text fill="#000000" font-family="sans-serif" font-size="11" lengthAdjust="spacing" textLength="153" x="126.5" y="568.855">bnbToAddLiquidityWith &gt; 0</text><text fill="#000000" font-family="sans-serif" font-size="11" lengthAdjust="spacing" textLength="23" x="91.5" y="562.4526">true</text><text fill="#000000" font-family="sans-serif" font-size="11" lengthAdjust="spacing" textLength="28" x="291.5" y="562.4526">false</text><rect fill="#F1F1F1" height="33.9688" rx="12.5" ry="12.5" style="stroke:#181818;stroke-width:0.5;" width="97" x="56" y="587.0469"/><text fill="#000000" font-family="sans-serif" font-size="12" lengthAdjust="spacing" textLength="77" x="66" y="608.1855">Add Liquidity</text><rect fill="#F1F1F1" height="33.9688" rx="12.5" ry="12.5" style="stroke:#181818;stroke-width:0.5;" width="133" x="235" y="587.0469"/><text fill="#000000" font-family="sans-serif" font-size="12" lengthAdjust="spacing" textLength="113" x="245" y="608.1855">No Liquidity to Add</text><polygon fill="#F1F1F1" points="203,627.0156,215,639.0156,203,651.0156,191,639.0156,203,627.0156" style="stroke:#181818;stroke-width:0.5;"/><rect fill="#F1F1F1" height="33.9688" rx="12.5" ry="12.5" style="stroke:#181818;stroke-width:0.5;" width="186" x="110" y="671.0156"/><text fill="#000000" font-family="sans-serif" font-size="12" lengthAdjust="spacing" textLength="166" x="120" y="692.1543">Calculate Marketing Amount</text><polygon fill="#F1F1F1" points="151,724.9844,255,724.9844,267,736.9844,255,748.9844,151,748.9844,139,736.9844,151,724.9844" style="stroke:#181818;stroke-width:0.5;"/><text fill="#000000" font-family="sans-serif" font-size="11" lengthAdjust="spacing" textLength="104" x="151" y="740.7925">marketingAmt &gt; 0</text><text fill="#000000" font-family="sans-serif" font-size="11" lengthAdjust="spacing" textLength="23" x="116" y="734.3901">true</text><text fill="#000000" font-family="sans-serif" font-size="11" lengthAdjust="spacing" textLength="28" x="267" y="734.3901">false</text><rect fill="#F1F1F1" height="33.9688" rx="12.5" ry="12.5" style="stroke:#181818;stroke-width:0.5;" width="173" x="11" y="758.9844"/><text fill="#000000" font-family="sans-serif" font-size="12" lengthAdjust="spacing" textLength="153" x="21" y="780.123">Transfer Marketing Funds</text><rect fill="#F1F1F1" height="33.9688" rx="12.5" ry="12.5" style="stroke:#181818;stroke-width:0.5;" width="209" x="204" y="758.9844"/><text fill="#000000" font-family="sans-serif" font-size="12" lengthAdjust="spacing" textLength="189" x="214" y="780.123">No Marketing Funds to Transfer</text><polygon fill="#F1F1F1" points="203,798.9531,215,810.9531,203,822.9531,191,810.9531,203,798.9531" style="stroke:#181818;stroke-width:0.5;"/><rect fill="#F1F1F1" height="33.9688" rx="12.5" ry="12.5" style="stroke:#181818;stroke-width:0.5;" width="151" x="127.5" y="842.9531"/><text fill="#000000" font-family="sans-serif" font-size="12" lengthAdjust="spacing" textLength="131" x="137.5" y="864.0918">Calculate Dev Amount</text><polygon fill="#F1F1F1" points="168.5,896.9219,237.5,896.9219,249.5,908.9219,237.5,920.9219,168.5,920.9219,156.5,908.9219,168.5,896.9219" style="stroke:#181818;stroke-width:0.5;"/><text fill="#000000" font-family="sans-serif" font-size="11" lengthAdjust="spacing" textLength="69" x="168.5" y="912.73">devAmt &gt; 0</text><text fill="#000000" font-family="sans-serif" font-size="11" lengthAdjust="spacing" textLength="23" x="133.5" y="906.3276">true</text><text fill="#000000" font-family="sans-serif" font-size="11" lengthAdjust="spacing" textLength="28" x="249.5" y="906.3276">false</text><rect fill="#F1F1F1" height="33.9688" rx="12.5" ry="12.5" style="stroke:#181818;stroke-width:0.5;" width="138" x="46" y="930.9219"/><text fill="#000000" font-family="sans-serif" font-size="12" lengthAdjust="spacing" textLength="118" x="56" y="952.0605">Transfer Dev Funds</text><rect fill="#F1F1F1" height="33.9688" rx="12.5" ry="12.5" style="stroke:#181818;stroke-width:0.5;" width="174" x="204" y="930.9219"/><text fill="#000000" font-family="sans-serif" font-size="12" lengthAdjust="spacing" textLength="154" x="214" y="952.0605">No Dev Funds to Transfer</text><polygon fill="#F1F1F1" points="203,970.8906,215,982.8906,203,994.8906,191,982.8906,203,970.8906" style="stroke:#181818;stroke-width:0.5;"/><rect fill="#F1F1F1" height="33.9688" rx="12.5" ry="12.5" style="stroke:#181818;stroke-width:0.5;" width="160" x="123" y="1014.8906"/><text fill="#000000" font-family="sans-serif" font-size="12" lengthAdjust="spacing" textLength="140" x="133" y="1036.0293">Calculate Team Amount</text><polygon fill="#F1F1F1" points="164.5,1068.8594,241.5,1068.8594,253.5,1080.8594,241.5,1092.8594,164.5,1092.8594,152.5,1080.8594,164.5,1068.8594" style="stroke:#181818;stroke-width:0.5;"/><text fill="#000000" font-family="sans-serif" font-size="11" lengthAdjust="spacing" textLength="77" x="164.5" y="1084.6675">teamAmt &gt; 0</text><text fill="#000000" font-family="sans-serif" font-size="11" lengthAdjust="spacing" textLength="23" x="129.5" y="1078.2651">true</text><text fill="#000000" font-family="sans-serif" font-size="11" lengthAdjust="spacing" textLength="28" x="253.5" y="1078.2651">false</text><rect fill="#F1F1F1" height="33.9688" rx="12.5" ry="12.5" style="stroke:#181818;stroke-width:0.5;" width="147" x="37" y="1102.8594"/><text fill="#000000" font-family="sans-serif" font-size="12" lengthAdjust="spacing" textLength="127" x="47" y="1123.998">Transfer Team Funds</text><rect fill="#F1F1F1" height="33.9688" rx="12.5" ry="12.5" style="stroke:#181818;stroke-width:0.5;" width="183" x="204" y="1102.8594"/><text fill="#000000" font-family="sans-serif" font-size="12" lengthAdjust="spacing" textLength="163" x="214" y="1123.998">No Team Funds to Transfer</text><polygon fill="#F1F1F1" points="203,1142.8281,215,1154.8281,203,1166.8281,191,1154.8281,203,1142.8281" style="stroke:#181818;stroke-width:0.5;"/><rect fill="#F1F1F1" height="33.9688" rx="12.5" ry="12.5" style="stroke:#181818;stroke-width:0.5;" width="137" x="443" y="337.1719"/><text fill="#000000" font-family="sans-serif" font-size="12" lengthAdjust="spacing" textLength="117" x="453" y="358.3105">No Tokens to Swap</text><polygon fill="#F1F1F1" points="357.25,1172.8281,369.25,1184.8281,357.25,1196.8281,345.25,1184.8281,357.25,1172.8281" style="stroke:#181818;stroke-width:0.5;"/><ellipse cx="357.25" cy="1227.8281" fill="none" rx="11" ry="11" style="stroke:#222222;stroke-width:1.0;"/><ellipse cx="357.25" cy="1227.8281" fill="#222222" rx="6" ry="6" style="stroke:#222222;stroke-width:1.0;"/><line style="stroke:#181818;stroke-width:1.0;" x1="357.25" x2="357.25" y1="67.2969" y2="87.2969"/><polygon fill="#181818" points="353.25,77.2969,357.25,87.2969,361.25,77.2969,357.25,81.2969" style="stroke:#181818;stroke-width:1.0;"/><line style="stroke:#181818;stroke-width:1.0;" x1="357.25" x2="357.25" y1="121.2656" y2="141.2656"/><polygon fill="#181818" points="353.25,131.2656,357.25,141.2656,361.25,131.2656,357.25,135.2656" style="stroke:#181818;stroke-width:1.0;"/><line style="stroke:#181818;stroke-width:1.0;" x1="357.25" x2="357.25" y1="175.2344" y2="195.2344"/><polygon fill="#181818" points="353.25,185.2344,357.25,195.2344,361.25,185.2344,357.25,189.2344" style="stroke:#181818;stroke-width:1.0;"/><line style="stroke:#181818;stroke-width:1.0;" x1="357.25" x2="357.25" y1="229.2031" y2="249.2031"/><polygon fill="#181818" points="353.25,239.2031,357.25,249.2031,361.25,239.2031,357.25,243.2031" style="stroke:#181818;stroke-width:1.0;"/><line style="stroke:#181818;stroke-width:1.0;" x1="203" x2="203" y1="371.1406" y2="391.1406"/><polygon fill="#181818" points="199,381.1406,203,391.1406,207,381.1406,203,385.1406" style="stroke:#181818;stroke-width:1.0;"/><line style="stroke:#181818;stroke-width:1.0;" x1="203" x2="203" y1="425.1094" y2="445.1094"/><polygon fill="#181818" points="199,435.1094,203,445.1094,207,435.1094,203,439.1094" style="stroke:#181818;stroke-width:1.0;"/><line style="stroke:#181818;stroke-width:1.0;" x1="203" x2="203" y1="479.0781" y2="499.0781"/><polygon fill="#181818" points="199,489.0781,203,499.0781,207,489.0781,203,493.0781" style="stroke:#181818;stroke-width:1.0;"/><line style="stroke:#181818;stroke-width:1.0;" x1="114.5" x2="104.5" y1="565.0469" y2="565.0469"/><line style="stroke:#181818;stroke-width:1.0;" x1="104.5" x2="104.5" y1="565.0469" y2="587.0469"/><polygon fill="#181818" points="100.5,577.0469,104.5,587.0469,108.5,577.0469,104.5,581.0469" style="stroke:#181818;stroke-width:1.0;"/><line style="stroke:#181818;stroke-width:1.0;" x1="291.5" x2="301.5" y1="565.0469" y2="565.0469"/><line style="stroke:#181818;stroke-width:1.0;" x1="301.5" x2="301.5" y1="565.0469" y2="587.0469"/><polygon fill="#181818" points="297.5,577.0469,301.5,587.0469,305.5,577.0469,301.5,581.0469" style="stroke:#181818;stroke-width:1.0;"/><line style="stroke:#181818;stroke-width:1.0;" x1="104.5" x2="104.5" y1="621.0156" y2="639.0156"/><line style="stroke:#181818;stroke-width:1.0;" x1="104.5" x2="191" y1="639.0156" y2="639.0156"/><polygon fill="#181818" points="181,635.0156,191,639.0156,181,643.0156,185,639.0156" style="stroke:#181818;stroke-width:1.0;"/><line style="stroke:#181818;stroke-width:1.0;" x1="301.5" x2="301.5" y1="621.0156" y2="639.0156"/><line style="stroke:#181818;stroke-width:1.0;" x1="301.5" x2="215" y1="639.0156" y2="639.0156"/><polygon fill="#181818" points="225,635.0156,215,639.0156,225,643.0156,221,639.0156" style="stroke:#181818;stroke-width:1.0;"/><line style="stroke:#181818;stroke-width:1.0;" x1="203" x2="203" y1="533.0469" y2="553.0469"/><polygon fill="#181818" points="199,543.0469,203,553.0469,207,543.0469,203,547.0469" style="stroke:#181818;stroke-width:1.0;"/><line style="stroke:#181818;stroke-width:1.0;" x1="203" x2="203" y1="651.0156" y2="671.0156"/><polygon fill="#181818" points="199,661.0156,203,671.0156,207,661.0156,203,665.0156" style="stroke:#181818;stroke-width:1.0;"/><line style="stroke:#181818;stroke-width:1.0;" x1="139" x2="97.5" y1="736.9844" y2="736.9844"/><line style="stroke:#181818;stroke-width:1.0;" x1="97.5" x2="97.5" y1="736.9844" y2="758.9844"/><polygon fill="#181818" points="93.5,748.9844,97.5,758.9844,101.5,748.9844,97.5,752.9844" style="stroke:#181818;stroke-width:1.0;"/><line style="stroke:#181818;stroke-width:1.0;" x1="267" x2="308.5" y1="736.9844" y2="736.9844"/><line style="stroke:#181818;stroke-width:1.0;" x1="308.5" x2="308.5" y1="736.9844" y2="758.9844"/><polygon fill="#181818" points="304.5,748.9844,308.5,758.9844,312.5,748.9844,308.5,752.9844" style="stroke:#181818;stroke-width:1.0;"/><line style="stroke:#181818;stroke-width:1.0;" x1="97.5" x2="97.5" y1="792.9531" y2="810.9531"/><line style="stroke:#181818;stroke-width:1.0;" x1="97.5" x2="191" y1="810.9531" y2="810.9531"/><polygon fill="#181818" points="181,806.9531,191,810.9531,181,814.9531,185,810.9531" style="stroke:#181818;stroke-width:1.0;"/><line style="stroke:#181818;stroke-width:1.0;" x1="308.5" x2="308.5" y1="792.9531" y2="810.9531"/><line style="stroke:#181818;stroke-width:1.0;" x1="308.5" x2="215" y1="810.9531" y2="810.9531"/><polygon fill="#181818" points="225,806.9531,215,810.9531,225,814.9531,221,810.9531" style="stroke:#181818;stroke-width:1.0;"/><line style="stroke:#181818;stroke-width:1.0;" x1="203" x2="203" y1="704.9844" y2="724.9844"/><polygon fill="#181818" points="199,714.9844,203,724.9844,207,714.9844,203,718.9844" style="stroke:#181818;stroke-width:1.0;"/><line style="stroke:#181818;stroke-width:1.0;" x1="203" x2="203" y1="822.9531" y2="842.9531"/><polygon fill="#181818" points="199,832.9531,203,842.9531,207,832.9531,203,836.9531" style="stroke:#181818;stroke-width:1.0;"/><line style="stroke:#181818;stroke-width:1.0;" x1="156.5" x2="115" y1="908.9219" y2="908.9219"/><line style="stroke:#181818;stroke-width:1.0;" x1="115" x2="115" y1="908.9219" y2="930.9219"/><polygon fill="#181818" points="111,920.9219,115,930.9219,119,920.9219,115,924.9219" style="stroke:#181818;stroke-width:1.0;"/><line style="stroke:#181818;stroke-width:1.0;" x1="249.5" x2="291" y1="908.9219" y2="908.9219"/><line style="stroke:#181818;stroke-width:1.0;" x1="291" x2="291" y1="908.9219" y2="930.9219"/><polygon fill="#181818" points="287,920.9219,291,930.9219,295,920.9219,291,924.9219" style="stroke:#181818;stroke-width:1.0;"/><line style="stroke:#181818;stroke-width:1.0;" x1="115" x2="115" y1="964.8906" y2="982.8906"/><line style="stroke:#181818;stroke-width:1.0;" x1="115" x2="191" y1="982.8906" y2="982.8906"/><polygon fill="#181818" points="181,978.8906,191,982.8906,181,986.8906,185,982.8906" style="stroke:#181818;stroke-width:1.0;"/><line style="stroke:#181818;stroke-width:1.0;" x1="291" x2="291" y1="964.8906" y2="982.8906"/><line style="stroke:#181818;stroke-width:1.0;" x1="291" x2="215" y1="982.8906" y2="982.8906"/><polygon fill="#181818" points="225,978.8906,215,982.8906,225,986.8906,221,982.8906" style="stroke:#181818;stroke-width:1.0;"/><line style="stroke:#181818;stroke-width:1.0;" x1="203" x2="203" y1="876.9219" y2="896.9219"/><polygon fill="#181818" points="199,886.9219,203,896.9219,207,886.9219,203,890.9219" style="stroke:#181818;stroke-width:1.0;"/><line style="stroke:#181818;stroke-width:1.0;" x1="203" x2="203" y1="994.8906" y2="1014.8906"/><polygon fill="#181818" points="199,1004.8906,203,1014.8906,207,1004.8906,203,1008.8906" style="stroke:#181818;stroke-width:1.0;"/><line style="stroke:#181818;stroke-width:1.0;" x1="152.5" x2="110.5" y1="1080.8594" y2="1080.8594"/><line style="stroke:#181818;stroke-width:1.0;" x1="110.5" x2="110.5" y1="1080.8594" y2="1102.8594"/><polygon fill="#181818" points="106.5,1092.8594,110.5,1102.8594,114.5,1092.8594,110.5,1096.8594" style="stroke:#181818;stroke-width:1.0;"/><line style="stroke:#181818;stroke-width:1.0;" x1="253.5" x2="295.5" y1="1080.8594" y2="1080.8594"/><line style="stroke:#181818;stroke-width:1.0;" x1="295.5" x2="295.5" y1="1080.8594" y2="1102.8594"/><polygon fill="#181818" points="291.5,1092.8594,295.5,1102.8594,299.5,1092.8594,295.5,1096.8594" style="stroke:#181818;stroke-width:1.0;"/><line style="stroke:#181818;stroke-width:1.0;" x1="110.5" x2="110.5" y1="1136.8281" y2="1154.8281"/><line style="stroke:#181818;stroke-width:1.0;" x1="110.5" x2="191" y1="1154.8281" y2="1154.8281"/><polygon fill="#181818" points="181,1150.8281,191,1154.8281,181,1158.8281,185,1154.8281" style="stroke:#181818;stroke-width:1.0;"/><line style="stroke:#181818;stroke-width:1.0;" x1="295.5" x2="295.5" y1="1136.8281" y2="1154.8281"/><line style="stroke:#181818;stroke-width:1.0;" x1="295.5" x2="215" y1="1154.8281" y2="1154.8281"/><polygon fill="#181818" points="225,1150.8281,215,1154.8281,225,1158.8281,221,1154.8281" style="stroke:#181818;stroke-width:1.0;"/><line style="stroke:#181818;stroke-width:1.0;" x1="203" x2="203" y1="1048.8594" y2="1068.8594"/><polygon fill="#181818" points="199,1058.8594,203,1068.8594,207,1058.8594,203,1062.8594" style="stroke:#181818;stroke-width:1.0;"/><line style="stroke:#181818;stroke-width:1.0;" x1="312.25" x2="203" y1="315.1719" y2="315.1719"/><line style="stroke:#181818;stroke-width:1.0;" x1="203" x2="203" y1="315.1719" y2="337.1719"/><polygon fill="#181818" points="199,327.1719,203,337.1719,207,327.1719,203,331.1719" style="stroke:#181818;stroke-width:1.0;"/><line style="stroke:#181818;stroke-width:1.0;" x1="402.25" x2="511.5" y1="315.1719" y2="315.1719"/><line style="stroke:#181818;stroke-width:1.0;" x1="511.5" x2="511.5" y1="315.1719" y2="337.1719"/><polygon fill="#181818" points="507.5,327.1719,511.5,337.1719,515.5,327.1719,511.5,331.1719" style="stroke:#181818;stroke-width:1.0;"/><line style="stroke:#181818;stroke-width:1.0;" x1="203" x2="203" y1="1166.8281" y2="1184.8281"/><line style="stroke:#181818;stroke-width:1.0;" x1="203" x2="345.25" y1="1184.8281" y2="1184.8281"/><polygon fill="#181818" points="335.25,1180.8281,345.25,1184.8281,335.25,1188.8281,339.25,1184.8281" style="stroke:#181818;stroke-width:1.0;"/><line style="stroke:#181818;stroke-width:1.0;" x1="511.5" x2="511.5" y1="371.1406" y2="1184.8281"/><line style="stroke:#181818;stroke-width:1.0;" x1="511.5" x2="369.25" y1="1184.8281" y2="1184.8281"/><polygon fill="#181818" points="379.25,1180.8281,369.25,1184.8281,379.25,1188.8281,375.25,1184.8281" style="stroke:#181818;stroke-width:1.0;"/><line style="stroke:#181818;stroke-width:1.0;" x1="357.25" x2="357.25" y1="283.1719" y2="303.1719"/><polygon fill="#181818" points="353.25,293.1719,357.25,303.1719,361.25,293.1719,357.25,297.1719" style="stroke:#181818;stroke-width:1.0;"/><line style="stroke:#181818;stroke-width:1.0;" x1="357.25" x2="357.25" y1="1196.8281" y2="1216.8281"/><polygon fill="#181818" points="353.25,1206.8281,357.25,1216.8281,361.25,1206.8281,357.25,1210.8281" style="stroke:#181818;stroke-width:1.0;"/><!--SRC=[dPF1Rfj0443l-nMJMtBhEKujOOnJ91T7G9MZjOR1h0oxxZ8aZQh-UmUemIPsOfKBqioRcJVBSfDYfZH273f1vBYnlmhMKUo4iRWva_62UH-VUwuVlSVxy37x5AvSBuf6w25wJ3fXk7fUp_tGwoOklKMy3lt7Rx4GrKxflRIoXCJeL94o6duBu6ScaztMcbgdhYcCVNWWM-Dq2akrpUdH8khpM2QBgkTSOsKX_WYHgnGXCuOsvfSGfAX0g5xbtj7fKlsiLVO6YredxVn5OLwJN5fYFMfVzxxUrmHFZIWIsceYxbrP97KX2I55RKgb9Hbx4YUpGrt5nacx6RpUsxEYV0H5h34HOdJsGcLmsoLX2b_kW7BK7E53kEF5sOWFInQyVo5rWl0LU8p5gZf49WtLbiUj1szlOHRCslWmVuu5oPEQ8VU3PmmfpeqS0Hh9ZTwyt_6SC_Tc37gkcORyiU2s_MR_aC0C19zEirOBykt8ZXMQ6tQg-rtQ7PBIMt1AlX0qkMHS7a2df0kYiPMwoj0UDUNxaLONdKTSOtxeSQN-75y-4q_nvGhbfj77iZtn7venyi_wYISnSuLes-fZqm6vJdNKf6tHNNykx_wqhb2SrbLazdy1]--></g></svg>