<?xml version="1.0" encoding="us-ascii" standalone="no"?><svg xmlns="http://www.w3.org/2000/svg" xmlns:xlink="http://www.w3.org/1999/xlink" contentStyleType="text/css" height="664px" preserveAspectRatio="none" style="width:1287px;height:664px;background:#FFFFFF;" version="1.1" viewBox="0 0 1287 664" width="1287px" zoomAndPan="magnify"><defs/><g><ellipse cx="868.625" cy="20" fill="#222222" rx="10" ry="10" style="stroke:#222222;stroke-width:1.0;"/><rect fill="#F1F1F1" height="33.9688" rx="12.5" ry="12.5" style="stroke:#181818;stroke-width:0.5;" width="123" x="807.125" y="50"/><text fill="#000000" font-family="sans-serif" font-size="12" lengthAdjust="spacing" textLength="103" x="817.125" y="71.1387">Transfer Request</text><polygon fill="#F1F1F1" points="611.125,103.9688,1126.125,103.9688,1138.125,115.9688,1126.125,127.9688,611.125,127.9688,599.125,115.9688,611.125,103.9688" style="stroke:#181818;stroke-width:0.5;"/><text fill="#000000" font-family="sans-serif" font-size="11" lengthAdjust="spacing" textLength="515" x="611.125" y="119.7769">balanceOf(from) - amount &lt;= 10 * 10**decimals() &amp;&amp; !isExcludedFromStickyTokens[from]</text><text fill="#000000" font-family="sans-serif" font-size="11" lengthAdjust="spacing" textLength="21" x="578.125" y="113.3745">yes</text><text fill="#000000" font-family="sans-serif" font-size="11" lengthAdjust="spacing" textLength="14" x="1138.125" y="113.3745">no</text><rect fill="#F1F1F1" height="33.9688" rx="12.5" ry="12.5" style="stroke:#181818;stroke-width:0.5;" width="161" x="505.75" y="137.9688"/><text fill="#000000" font-family="sans-serif" font-size="12" lengthAdjust="spacing" textLength="141" x="515.75" y="159.1074">Balance Check Passed?</text><polygon fill="#F1F1F1" points="447.75,191.9375,724.75,191.9375,736.75,203.9375,724.75,215.9375,447.75,215.9375,435.75,203.9375,447.75,191.9375" style="stroke:#181818;stroke-width:0.5;"/><text fill="#000000" font-family="sans-serif" font-size="11" lengthAdjust="spacing" textLength="277" x="447.75" y="207.7456">balanceOf(from) - amount &gt; 10 * 10**decimals()</text><text fill="#000000" font-family="sans-serif" font-size="11" lengthAdjust="spacing" textLength="21" x="414.75" y="201.3433">yes</text><text fill="#000000" font-family="sans-serif" font-size="11" lengthAdjust="spacing" textLength="14" x="736.75" y="201.3433">no</text><rect fill="#F1F1F1" height="33.9688" rx="12.5" ry="12.5" style="stroke:#181818;stroke-width:0.5;" width="222" x="195" y="225.9375"/><text fill="#000000" font-family="sans-serif" font-size="12" lengthAdjust="spacing" textLength="202" x="205" y="247.0762">Calculate Sticky Token Difference</text><rect fill="#F1F1F1" height="33.9688" rx="12.5" ry="12.5" style="stroke:#181818;stroke-width:0.5;" width="227" x="192.5" y="279.9063"/><text fill="#000000" font-family="sans-serif" font-size="12" lengthAdjust="spacing" textLength="207" x="202.5" y="301.0449">Sticky Token Difference &gt; 10 TRII?</text><polygon fill="#F1F1F1" points="294,333.875,318,333.875,330,345.875,318,357.875,294,357.875,282,345.875,294,333.875" style="stroke:#181818;stroke-width:0.5;"/><text fill="#000000" font-family="sans-serif" font-size="11" lengthAdjust="spacing" textLength="23" x="294.5" y="349.6831">true</text><text fill="#000000" font-family="sans-serif" font-size="11" lengthAdjust="spacing" textLength="21" x="261" y="343.2808">yes</text><text fill="#000000" font-family="sans-serif" font-size="11" lengthAdjust="spacing" textLength="14" x="330" y="343.2808">no</text><rect fill="#F1F1F1" height="33.9688" rx="12.5" ry="12.5" style="stroke:#181818;stroke-width:0.5;" width="167" x="43.5" y="367.875"/><text fill="#000000" font-family="sans-serif" font-size="12" lengthAdjust="spacing" textLength="147" x="53.5" y="389.0137">Update Transfer Amount</text><rect fill="#F1F1F1" height="33.9688" rx="12.5" ry="12.5" style="stroke:#181818;stroke-width:0.5;" width="232" x="11" y="421.8438"/><text fill="#000000" font-family="sans-serif" font-size="12" lengthAdjust="spacing" textLength="212" x="21" y="442.9824">Transfer Amount = Original Amount</text><rect fill="#F1F1F1" height="33.9688" rx="12.5" ry="12.5" style="stroke:#181818;stroke-width:0.5;" width="150" x="410" y="367.875"/><text fill="#000000" font-family="sans-serif" font-size="12" lengthAdjust="spacing" textLength="130" x="420" y="389.0137">Limit Transfer Amount</text><rect fill="#F1F1F1" height="33.9688" rx="12.5" ry="12.5" style="stroke:#181818;stroke-width:0.5;" width="444" x="263" y="421.8438"/><text fill="#000000" font-family="sans-serif" font-size="12" lengthAdjust="spacing" textLength="424" x="273" y="442.9824">Transfer Amount = (10 * 10**decimals() + amount - balanceOf(from))</text><polygon fill="#F1F1F1" points="306,461.8125,318,473.8125,306,485.8125,294,473.8125,306,461.8125" style="stroke:#181818;stroke-width:0.5;"/><rect fill="#F1F1F1" height="33.9688" rx="12.5" ry="12.5" style="stroke:#181818;stroke-width:0.5;" width="259" x="737" y="225.9375"/><text fill="#000000" font-family="sans-serif" font-size="12" lengthAdjust="spacing" textLength="239" x="747" y="247.0762">Balance Not Sufficient for Sticky Tokens</text><rect fill="#F1F1F1" height="33.9688" rx="12.5" ry="12.5" style="stroke:#181818;stroke-width:0.5;" width="232" x="750.5" y="279.9063"/><text fill="#000000" font-family="sans-serif" font-size="12" lengthAdjust="spacing" textLength="212" x="760.5" y="301.0449">Transfer Amount = Original Amount</text><polygon fill="#F1F1F1" points="586.25,491.8125,598.25,503.8125,586.25,515.8125,574.25,503.8125,586.25,491.8125" style="stroke:#181818;stroke-width:0.5;"/><rect fill="#F1F1F1" height="33.9688" rx="12.5" ry="12.5" style="stroke:#181818;stroke-width:0.5;" width="152" x="510.25" y="535.8125"/><text fill="#000000" font-family="sans-serif" font-size="12" lengthAdjust="spacing" textLength="132" x="520.25" y="556.9512">Proceed with Transfer</text><rect fill="#F1F1F1" height="33.9688" rx="12.5" ry="12.5" style="stroke:#181818;stroke-width:0.5;" width="250" x="1026" y="137.9688"/><text fill="#000000" font-family="sans-serif" font-size="12" lengthAdjust="spacing" textLength="230" x="1036" y="159.1074">Address Excluded from Sticky Tokens</text><rect fill="#F1F1F1" height="33.9688" rx="12.5" ry="12.5" style="stroke:#181818;stroke-width:0.5;" width="172" x="1065" y="191.9375"/><text fill="#000000" font-family="sans-serif" font-size="12" lengthAdjust="spacing" textLength="152" x="1075" y="213.0762">Continue Normal Transfer</text><polygon fill="#F1F1F1" points="868.625,575.7813,880.625,587.7813,868.625,599.7813,856.625,587.7813,868.625,575.7813" style="stroke:#181818;stroke-width:0.5;"/><rect fill="#F1F1F1" height="33.9688" rx="12.5" ry="12.5" style="stroke:#181818;stroke-width:0.5;" width="115" x="811.125" y="619.7813"/><text fill="#000000" font-family="sans-serif" font-size="12" lengthAdjust="spacing" textLength="95" x="821.125" y="640.9199">End Transaction</text><line style="stroke:#181818;stroke-width:1.0;" x1="868.625" x2="868.625" y1="30" y2="50"/><polygon fill="#181818" points="864.625,40,868.625,50,872.625,40,868.625,44" style="stroke:#181818;stroke-width:1.0;"/><line style="stroke:#181818;stroke-width:1.0;" x1="306" x2="306" y1="259.9063" y2="279.9063"/><polygon fill="#181818" points="302,269.9063,306,279.9063,310,269.9063,306,273.9063" style="stroke:#181818;stroke-width:1.0;"/><line style="stroke:#181818;stroke-width:1.0;" x1="127" x2="127" y1="401.8438" y2="421.8438"/><polygon fill="#181818" points="123,411.8438,127,421.8438,131,411.8438,127,415.8438" style="stroke:#181818;stroke-width:1.0;"/><line style="stroke:#181818;stroke-width:1.0;" x1="485" x2="485" y1="401.8438" y2="421.8438"/><polygon fill="#181818" points="481,411.8438,485,421.8438,489,411.8438,485,415.8438" style="stroke:#181818;stroke-width:1.0;"/><line style="stroke:#181818;stroke-width:1.0;" x1="282" x2="127" y1="345.875" y2="345.875"/><line style="stroke:#181818;stroke-width:1.0;" x1="127" x2="127" y1="345.875" y2="367.875"/><polygon fill="#181818" points="123,357.875,127,367.875,131,357.875,127,361.875" style="stroke:#181818;stroke-width:1.0;"/><line style="stroke:#181818;stroke-width:1.0;" x1="330" x2="485" y1="345.875" y2="345.875"/><line style="stroke:#181818;stroke-width:1.0;" x1="485" x2="485" y1="345.875" y2="367.875"/><polygon fill="#181818" points="481,357.875,485,367.875,489,357.875,485,361.875" style="stroke:#181818;stroke-width:1.0;"/><line style="stroke:#181818;stroke-width:1.0;" x1="127" x2="127" y1="455.8125" y2="473.8125"/><line style="stroke:#181818;stroke-width:1.0;" x1="127" x2="294" y1="473.8125" y2="473.8125"/><polygon fill="#181818" points="284,469.8125,294,473.8125,284,477.8125,288,473.8125" style="stroke:#181818;stroke-width:1.0;"/><line style="stroke:#181818;stroke-width:1.0;" x1="485" x2="485" y1="455.8125" y2="473.8125"/><line style="stroke:#181818;stroke-width:1.0;" x1="485" x2="318" y1="473.8125" y2="473.8125"/><polygon fill="#181818" points="328,469.8125,318,473.8125,328,477.8125,324,473.8125" style="stroke:#181818;stroke-width:1.0;"/><line style="stroke:#181818;stroke-width:1.0;" x1="306" x2="306" y1="313.875" y2="333.875"/><polygon fill="#181818" points="302,323.875,306,333.875,310,323.875,306,327.875" style="stroke:#181818;stroke-width:1.0;"/><line style="stroke:#181818;stroke-width:1.0;" x1="866.5" x2="866.5" y1="259.9063" y2="279.9063"/><polygon fill="#181818" points="862.5,269.9063,866.5,279.9063,870.5,269.9063,866.5,273.9063" style="stroke:#181818;stroke-width:1.0;"/><line style="stroke:#181818;stroke-width:1.0;" x1="435.75" x2="306" y1="203.9375" y2="203.9375"/><line style="stroke:#181818;stroke-width:1.0;" x1="306" x2="306" y1="203.9375" y2="225.9375"/><polygon fill="#181818" points="302,215.9375,306,225.9375,310,215.9375,306,219.9375" style="stroke:#181818;stroke-width:1.0;"/><line style="stroke:#181818;stroke-width:1.0;" x1="736.75" x2="866.5" y1="203.9375" y2="203.9375"/><line style="stroke:#181818;stroke-width:1.0;" x1="866.5" x2="866.5" y1="203.9375" y2="225.9375"/><polygon fill="#181818" points="862.5,215.9375,866.5,225.9375,870.5,215.9375,866.5,219.9375" style="stroke:#181818;stroke-width:1.0;"/><line style="stroke:#181818;stroke-width:1.0;" x1="306" x2="306" y1="485.8125" y2="503.8125"/><line style="stroke:#181818;stroke-width:1.0;" x1="306" x2="574.25" y1="503.8125" y2="503.8125"/><polygon fill="#181818" points="564.25,499.8125,574.25,503.8125,564.25,507.8125,568.25,503.8125" style="stroke:#181818;stroke-width:1.0;"/><line style="stroke:#181818;stroke-width:1.0;" x1="866.5" x2="866.5" y1="313.875" y2="503.8125"/><line style="stroke:#181818;stroke-width:1.0;" x1="866.5" x2="598.25" y1="503.8125" y2="503.8125"/><polygon fill="#181818" points="608.25,499.8125,598.25,503.8125,608.25,507.8125,604.25,503.8125" style="stroke:#181818;stroke-width:1.0;"/><line style="stroke:#181818;stroke-width:1.0;" x1="586.25" x2="586.25" y1="171.9375" y2="191.9375"/><polygon fill="#181818" points="582.25,181.9375,586.25,191.9375,590.25,181.9375,586.25,185.9375" style="stroke:#181818;stroke-width:1.0;"/><line style="stroke:#181818;stroke-width:1.0;" x1="586.25" x2="586.25" y1="515.8125" y2="535.8125"/><polygon fill="#181818" points="582.25,525.8125,586.25,535.8125,590.25,525.8125,586.25,529.8125" style="stroke:#181818;stroke-width:1.0;"/><line style="stroke:#181818;stroke-width:1.0;" x1="1151" x2="1151" y1="171.9375" y2="191.9375"/><polygon fill="#181818" points="1147,181.9375,1151,191.9375,1155,181.9375,1151,185.9375" style="stroke:#181818;stroke-width:1.0;"/><line style="stroke:#181818;stroke-width:1.0;" x1="599.125" x2="586.25" y1="115.9688" y2="115.9688"/><line style="stroke:#181818;stroke-width:1.0;" x1="586.25" x2="586.25" y1="115.9688" y2="137.9688"/><polygon fill="#181818" points="582.25,127.9688,586.25,137.9688,590.25,127.9688,586.25,131.9688" style="stroke:#181818;stroke-width:1.0;"/><line style="stroke:#181818;stroke-width:1.0;" x1="1138.125" x2="1151" y1="115.9688" y2="115.9688"/><line style="stroke:#181818;stroke-width:1.0;" x1="1151" x2="1151" y1="115.9688" y2="137.9688"/><polygon fill="#181818" points="1147,127.9688,1151,137.9688,1155,127.9688,1151,131.9688" style="stroke:#181818;stroke-width:1.0;"/><line style="stroke:#181818;stroke-width:1.0;" x1="586.25" x2="586.25" y1="569.7813" y2="587.7813"/><line style="stroke:#181818;stroke-width:1.0;" x1="586.25" x2="856.625" y1="587.7813" y2="587.7813"/><polygon fill="#181818" points="846.625,583.7813,856.625,587.7813,846.625,591.7813,850.625,587.7813" style="stroke:#181818;stroke-width:1.0;"/><line style="stroke:#181818;stroke-width:1.0;" x1="1151" x2="1151" y1="225.9063" y2="587.7813"/><line style="stroke:#181818;stroke-width:1.0;" x1="1151" x2="880.625" y1="587.7813" y2="587.7813"/><polygon fill="#181818" points="890.625,583.7813,880.625,587.7813,890.625,591.7813,886.625,587.7813" style="stroke:#181818;stroke-width:1.0;"/><line style="stroke:#181818;stroke-width:1.0;" x1="868.625" x2="868.625" y1="83.9688" y2="103.9688"/><polygon fill="#181818" points="864.625,93.9688,868.625,103.9688,872.625,93.9688,868.625,97.9688" style="stroke:#181818;stroke-width:1.0;"/><line style="stroke:#181818;stroke-width:1.0;" x1="868.625" x2="868.625" y1="599.7813" y2="619.7813"/><polygon fill="#181818" points="864.625,609.7813,868.625,619.7813,872.625,609.7813,868.625,613.7813" style="stroke:#181818;stroke-width:1.0;"/><!--SRC=[bP9DJm8n48Rl-ol62zd5aEXrLoI8c90O8NoSZ8VQJcN2RglzYFBlxRBi1XOqUkcXCtsVTzwfTSouA5qQfgn40tFyy6XT5aKa8NvbELCSfpAMHXS9z80LsYi7Dtsule9kEBfTWPmAbjiuWKu7BiYEltZk1Og7y6RXY6-sIxr1PPzBaPS4t1eLn5kqIGIGtbKC6AsHRs36h4Kno4BbLmEtv_WjwI0-OZdtENC8bH7OEO5xac5O3CfPrVT3jS8ivvF9e6eiFJdZyOGKD5RleWGrKGvtJhEwtBg7FamDlP5Y-L4dvXOXLhgHVQI2t3zKutEBkQnpwq4hqcIFLO9arCOtotdI3XPUIkA4GKLgSnIetSVufnbhL3epcYCA-2ItRWRCeaCBwL08WzP2_QUWD7tAJaTQELA-T6h2p8ToEroKZfMeRXbtf5Ns3G00]--></g></svg>